<?xml version="1.0" encoding="UTF-8" standalone="no"?>
<!-- Created with Inkscape (http://www.inkscape.org/) -->

<svg
   xmlns:dc="http://purl.org/dc/elements/1.1/"
   xmlns:cc="http://creativecommons.org/ns#"
   xmlns:rdf="http://www.w3.org/1999/02/22-rdf-syntax-ns#"
   xmlns:svg="http://www.w3.org/2000/svg"
   xmlns="http://www.w3.org/2000/svg"
   xmlns:sodipodi="http://sodipodi.sourceforge.net/DTD/sodipodi-0.dtd"
   xmlns:inkscape="http://www.inkscape.org/namespaces/inkscape"
   width="84.965637mm"
   height="98.109871mm"
   viewBox="0 0 301.05935 347.6334"
   id="svg5101"
   version="1.1"
   inkscape:version="0.91 r13725"
   sodipodi:docname="hydrology-and-water-resources.svg">
  <defs
     id="defs5103" />
  <sodipodi:namedview
     id="base"
     pagecolor="#ffffff"
     bordercolor="#666666"
     borderopacity="1.0"
     inkscape:pageopacity="0.0"
     inkscape:pageshadow="2"
     inkscape:zoom="0.59978497"
     inkscape:cx="-175.66045"
     inkscape:cy="147.63562"
     inkscape:document-units="px"
     inkscape:current-layer="layer1"
     showgrid="false"
     fit-margin-top="0"
     fit-margin-left="0"
     fit-margin-right="0"
     fit-margin-bottom="0"
     inkscape:window-width="1875"
     inkscape:window-height="1056"
     inkscape:window-x="45"
     inkscape:window-y="24"
     inkscape:window-maximized="1" />
  <metadata
     id="metadata5106">
    <rdf:RDF>
      <cc:Work
         rdf:about="">
        <dc:format>image/svg+xml</dc:format>
        <dc:type
           rdf:resource="http://purl.org/dc/dcmitype/StillImage" />
        <dc:title></dc:title>
      </cc:Work>
    </rdf:RDF>
  </metadata>
  <g
     inkscape:label="Layer 1"
     inkscape:groupmode="layer"
     id="layer1"
     transform="translate(-75.18462,-127.11693)">
    <path
       sodipodi:type="star"
       style="opacity:1;fill:#0066cc;fill-opacity:1;stroke:none;stroke-width:3.9000001;stroke-linecap:round;stroke-linejoin:miter;stroke-miterlimit:3.70000005;stroke-dasharray:none;stroke-dashoffset:0;stroke-opacity:1"
       id="path5651"
       sodipodi:sides="6"
       sodipodi:cx="225.71429"
       sodipodi:cy="300.93362"
       sodipodi:r1="173.8167"
       sodipodi:r2="150.52968"
       sodipodi:arg1="0.52359878"
       sodipodi:arg2="1.0471976"
       inkscape:flatsided="true"
       inkscape:rounded="0"
       inkscape:randomized="0"
       d="m 376.24397,387.84197 -150.52968,86.90835 -150.52967,-86.90835 0,-173.81669 150.52968,-86.90835 150.52967,86.90835 z" />
    <g
       transform="matrix(2.8215018,0,0,2.8215018,263.80174,-2146.7157)"
       id="g5743"
       style="fill:#ffffff;fill-opacity:1">
      <g
         id="g5745"
         style="fill:#ffffff;fill-opacity:1">
        <g
           id="g5747"
           style="fill:#ffffff;fill-opacity:1">
          <g
             id="g5749"
             style="fill:#ffffff;fill-opacity:1">
            <path
               style="clip-rule:evenodd;fill:#ffffff;fill-opacity:1;fill-rule:evenodd"
               inkscape:connector-curvature="0"
               d="m 21.599,891.905 c -3.692,0.27 -6.587,-1.547 -9.471,-3.486 -0.47,-0.315 -1.471,-0.387 -1.924,-0.099 -4.82,3.067 -10.031,4.42 -15.618,3.113 -2.395,-0.561 -4.633,-1.904 -6.847,-3.076 -1.01,-0.534 -1.623,-0.549 -2.625,0.068 -2.421,1.49 -4.927,2.938 -7.867,3.131 -1.666,0.109 -3.343,0.05 -5.016,0.024 -3.106,-0.046 -5.713,-1.448 -8.197,-3.126 -1.244,-0.839 -2.365,-0.882 -3.629,0.025 -3.05,2.19 -6.421,3.508 -10.249,3.316 -1.529,-0.075 -3.173,-1.642 -3.297,-3.038 -0.112,-1.268 1.357,-2.771 2.996,-3.062 3.657,-0.65 6.888,-1.909 9.247,-5.094 1.68,-2.27 5.168,-1.802 6.882,0.476 2.511,3.338 5.869,5.334 10.099,4.568 2.885,-0.521 5.417,-2.148 7.246,-4.612 1.467,-1.978 4.529,-2.312 6.126,-0.488 1.775,2.027 3.73,3.903 6.292,4.593 1.962,0.527 4.282,0.704 6.202,0.171 2.521,-0.701 4.617,-2.48 6.267,-4.651 1.37,-1.801 4.503,-1.524 5.951,0.277 2.257,2.809 5.06,4.759 8.821,5.079 0.85,0.071 2.016,0.419 2.4,1.036 0.575,0.926 0.87,2.239 0.724,3.311 -0.076,0.556 -1.308,1.094 -2.11,1.366 -0.738,0.25 -1.598,0.133 -2.403,0.178 z"
               id="path5751" />
          </g>
        </g>
        <g
           id="g5753"
           style="fill:#ffffff;fill-opacity:1">
          <g
             id="g5755"
             style="fill:#ffffff;fill-opacity:1">
            <path
               style="clip-rule:evenodd;fill:#ffffff;fill-opacity:1;fill-rule:evenodd"
               inkscape:connector-curvature="0"
               d="m 21.599,874.18 c -3.692,0.27 -6.587,-1.547 -9.471,-3.485 -0.47,-0.316 -1.471,-0.389 -1.924,-0.1 -4.82,3.068 -10.031,4.42 -15.618,3.113 -2.395,-0.561 -4.633,-1.904 -6.847,-3.075 -1.01,-0.535 -1.623,-0.549 -2.625,0.068 -2.421,1.49 -4.927,2.938 -7.867,3.131 -1.666,0.108 -3.343,0.05 -5.016,0.024 -3.106,-0.046 -5.713,-1.449 -8.197,-3.126 -1.244,-0.839 -2.365,-0.883 -3.629,0.024 -3.05,2.19 -6.421,3.509 -10.249,3.317 -1.529,-0.076 -3.173,-1.643 -3.297,-3.039 -0.112,-1.268 1.357,-2.77 2.996,-3.061 3.657,-0.651 6.888,-1.91 9.247,-5.095 1.68,-2.27 5.168,-1.801 6.882,0.477 2.511,3.337 5.869,5.333 10.099,4.567 2.885,-0.521 5.417,-2.147 7.246,-4.611 1.467,-1.978 4.529,-2.313 6.126,-0.488 1.775,2.027 3.73,3.902 6.292,4.591 1.962,0.529 4.282,0.705 6.202,0.172 2.521,-0.701 4.617,-2.48 6.267,-4.65 1.37,-1.802 4.503,-1.524 5.951,0.277 2.257,2.808 5.06,4.759 8.821,5.078 0.85,0.072 2.016,0.419 2.4,1.036 0.575,0.925 0.87,2.239 0.724,3.312 -0.076,0.555 -1.308,1.093 -2.11,1.366 -0.738,0.251 -1.598,0.133 -2.403,0.177 z"
               id="path5757" />
          </g>
        </g>
        <g
           id="g5759"
           style="fill:#ffffff;fill-opacity:1">
          <g
             id="g5761"
             style="fill:#ffffff;fill-opacity:1">
            <path
               style="clip-rule:evenodd;fill:#ffffff;fill-opacity:1;fill-rule:evenodd"
               inkscape:connector-curvature="0"
               d="m 21.599,855.855 c -3.692,0.271 -6.587,-1.546 -9.471,-3.485 -0.47,-0.316 -1.471,-0.388 -1.924,-0.099 -4.82,3.068 -10.031,4.42 -15.618,3.112 -2.395,-0.56 -4.633,-1.904 -6.847,-3.075 -1.01,-0.535 -1.623,-0.549 -2.625,0.068 -2.421,1.491 -4.927,2.938 -7.867,3.131 -1.666,0.109 -3.343,0.05 -5.016,0.024 -3.106,-0.045 -5.713,-1.449 -8.197,-3.125 -1.244,-0.84 -2.365,-0.883 -3.629,0.024 -3.05,2.19 -6.421,3.508 -10.249,3.316 -1.529,-0.076 -3.173,-1.643 -3.297,-3.039 -0.112,-1.267 1.357,-2.77 2.996,-3.061 3.657,-0.651 6.888,-1.909 9.247,-5.095 1.68,-2.269 5.168,-1.802 6.882,0.477 2.511,3.338 5.869,5.334 10.099,4.568 2.885,-0.522 5.417,-2.147 7.246,-4.612 1.467,-1.977 4.529,-2.312 6.126,-0.488 1.775,2.027 3.73,3.902 6.292,4.592 1.962,0.528 4.282,0.705 6.202,0.172 2.521,-0.701 4.617,-2.481 6.267,-4.651 1.37,-1.802 4.503,-1.524 5.951,0.277 2.257,2.809 5.06,4.76 8.821,5.078 0.85,0.072 2.016,0.42 2.4,1.037 0.575,0.925 0.87,2.239 0.724,3.311 -0.076,0.556 -1.308,1.093 -2.11,1.366 -0.738,0.251 -1.598,0.133 -2.403,0.177 z"
               id="path5763" />
          </g>
        </g>
      </g>
    </g>
  </g>
</svg>
