<?xml version="1.0" encoding="UTF-8" standalone="no"?>
<!-- Created with Inkscape (http://www.inkscape.org/) -->

<svg
   xmlns:dc="http://purl.org/dc/elements/1.1/"
   xmlns:cc="http://creativecommons.org/ns#"
   xmlns:rdf="http://www.w3.org/1999/02/22-rdf-syntax-ns#"
   xmlns:svg="http://www.w3.org/2000/svg"
   xmlns="http://www.w3.org/2000/svg"
   xmlns:sodipodi="http://sodipodi.sourceforge.net/DTD/sodipodi-0.dtd"
   xmlns:inkscape="http://www.inkscape.org/namespaces/inkscape"
   width="84.965637mm"
   height="98.109871mm"
   viewBox="0 0 301.05935 347.6334"
   id="svg5101"
   version="1.1"
   inkscape:version="0.91 r13725"
   sodipodi:docname="natural-hazards.svg">
  <defs
     id="defs5103" />
  <sodipodi:namedview
     id="base"
     pagecolor="#ffffff"
     bordercolor="#666666"
     borderopacity="1.0"
     inkscape:pageopacity="0.0"
     inkscape:pageshadow="2"
     inkscape:zoom="0.59978497"
     inkscape:cx="247.50322"
     inkscape:cy="-136.65439"
     inkscape:document-units="px"
     inkscape:current-layer="layer1"
     showgrid="false"
     fit-margin-top="0"
     fit-margin-left="0"
     fit-margin-right="0"
     fit-margin-bottom="0"
     inkscape:window-width="1875"
     inkscape:window-height="1056"
     inkscape:window-x="45"
     inkscape:window-y="24"
     inkscape:window-maximized="1" />
  <metadata
     id="metadata5106">
    <rdf:RDF>
      <cc:Work
         rdf:about="">
        <dc:format>image/svg+xml</dc:format>
        <dc:type
           rdf:resource="http://purl.org/dc/dcmitype/StillImage" />
        <dc:title></dc:title>
      </cc:Work>
    </rdf:RDF>
  </metadata>
  <g
     inkscape:label="Layer 1"
     inkscape:groupmode="layer"
     id="layer1"
     transform="translate(-75.18462,-127.11693)">
    <path
       sodipodi:type="star"
       style="opacity:1;fill:#f56200;fill-opacity:1;stroke:none;stroke-width:3.9000001;stroke-linecap:round;stroke-linejoin:miter;stroke-miterlimit:3.70000005;stroke-dasharray:none;stroke-dashoffset:0;stroke-opacity:1"
       id="path5651"
       sodipodi:sides="6"
       sodipodi:cx="225.71429"
       sodipodi:cy="300.93362"
       sodipodi:r1="173.8167"
       sodipodi:r2="150.52968"
       sodipodi:arg1="0.52359878"
       sodipodi:arg2="1.0471976"
       inkscape:flatsided="true"
       inkscape:rounded="0"
       inkscape:randomized="0"
       d="m 376.24397,387.84197 -150.52968,86.90835 -150.52967,-86.90835 0,-173.81669 150.52968,-86.90835 150.52967,86.90835 z" />
    <path
       inkscape:connector-curvature="0"
       d="m 320.60638,372.44047 c -9.96277,0 -15.27624,5.09209 -19.48274,9.07719 -3.54232,3.54232 -6.19906,5.97766 -11.95532,5.97766 -5.75626,0 -8.19161,-2.43534 -11.95532,-5.97766 -4.2065,-3.9851 -9.51997,-9.07719 -19.48274,-9.07719 -9.96276,0 -15.27624,5.09209 -19.48274,9.07719 -3.54232,3.54232 -6.19905,5.97766 -11.73392,5.97766 -5.53487,0 -8.19161,-2.43534 -11.95532,-5.97766 -4.2065,-3.9851 -9.51998,-9.07719 -19.48274,-9.07719 -9.96276,0 -15.27624,5.09209 -19.48274,9.07719 -3.54232,3.54232 -6.19905,5.97766 -11.73392,5.97766 -5.53487,0 -8.19161,-2.43534 -11.95532,-5.97766 -4.20651,-3.9851 -9.51998,-9.07719 -19.48274,-9.07719 -3.09952,0 -5.53487,2.43535 -5.53487,5.53487 0,3.09953 2.43535,5.53487 5.53487,5.53487 5.53487,0 8.19161,2.43535 11.95532,5.97766 4.2065,3.98511 9.51997,9.07719 19.48274,9.07719 9.96276,0 15.27624,-5.09208 19.48273,-9.07719 3.54233,-3.54231 6.19906,-5.97766 11.73393,-5.97766 5.53487,0 8.19161,2.43535 11.95532,5.97766 4.20649,3.98511 9.51998,9.07719 19.48274,9.07719 9.96276,0 15.27624,-5.09208 19.48273,-9.07719 3.54233,-3.54231 6.19906,-5.97766 11.73393,-5.97766 5.53487,0 8.19161,2.43535 11.95532,5.97766 4.2065,3.98511 9.51998,9.07719 19.48274,9.07719 9.96276,0 15.27624,-5.09208 19.48274,-9.07719 3.54232,-3.54231 6.19906,-5.97766 11.95532,-5.97766 3.09952,0 5.53487,-2.43534 5.53487,-5.53487 0,-3.09952 -2.43535,-5.53487 -5.53487,-5.53487 z"
       id="path16061"
       style="fill:#ffffff;fill-opacity:1;stroke:none" />
    <path
       inkscape:connector-curvature="0"
       d="m 320.60638,350.301 c -9.96277,0 -15.27624,5.09207 -19.48274,9.07719 -3.54232,3.54231 -6.19906,5.97766 -11.95532,5.97766 -5.75626,0 -8.19161,-2.43535 -11.95532,-5.97766 -4.2065,-3.98512 -9.51997,-9.07719 -19.48274,-9.07719 -9.96276,0 -15.27624,5.09207 -19.48274,9.07719 -3.54232,3.54231 -6.19905,5.97766 -11.73392,5.97766 -5.53487,0 -8.19161,-2.43535 -11.95532,-5.97766 -4.2065,-3.98512 -9.51998,-9.07719 -19.48274,-9.07719 -9.96276,0 -15.27624,5.09207 -19.48274,9.07719 -3.54232,3.54231 -6.19905,5.97766 -11.73392,5.97766 -5.53487,0 -8.19161,-2.43535 -11.95532,-5.97766 -4.20651,-3.98512 -9.51998,-9.07719 -19.48274,-9.07719 -3.09952,0 -5.53487,2.43534 -5.53487,5.53486 0,3.09954 2.43535,5.53487 5.53487,5.53487 5.53487,0 8.19161,2.43535 11.95532,5.97766 4.2065,3.98512 9.51997,9.0772 19.48274,9.0772 9.96276,0 15.27624,-5.09208 19.48273,-9.0772 3.54233,-3.54231 6.19906,-5.97766 11.73393,-5.97766 5.53487,0 8.19161,2.43535 11.95532,5.97766 4.20649,3.98512 9.51998,9.0772 19.48274,9.0772 9.96276,0 15.27624,-5.09208 19.48273,-9.0772 3.54233,-3.54231 6.19906,-5.97766 11.73393,-5.97766 5.53487,0 8.19161,2.43535 11.95532,5.97766 4.2065,3.98512 9.51998,9.0772 19.48274,9.0772 9.96276,0 15.27624,-5.09208 19.48274,-9.0772 3.54232,-3.54231 6.19906,-5.97766 11.95532,-5.97766 3.09952,0 5.53487,-2.43533 5.53487,-5.53487 0,-3.09952 -2.43535,-5.53486 -5.53487,-5.53486 z"
       id="path16063"
       style="fill:#ffffff;fill-opacity:1;stroke:none" />
    <path
       inkscape:connector-curvature="0"
       d="m 320.60638,328.16152 c -1.99255,0 -3.76372,0.2214 -5.53488,0.66419 l 0,-31.88086 c 0,-3.09952 -2.43533,-5.53487 -5.53487,-5.53487 l -27.67434,0 0,-77.48816 c 0,-3.09953 -2.43534,-5.53487 -5.53487,-5.53487 l -88.55791,0 c -3.09952,0 -5.53487,2.43534 -5.53487,5.53487 l 0,44.27895 -38.74408,0 c -3.09953,0 -5.53487,2.43535 -5.53487,5.53487 l 0,65.09007 c -1.77116,-0.44279 -3.54231,-0.66419 -5.53487,-0.66419 -3.09952,0 -5.53487,2.43535 -5.53487,5.53487 0,3.09953 2.43535,5.53487 5.53487,5.53487 5.53487,0 8.19161,2.43535 11.95532,5.97766 4.2065,3.9851 9.51997,9.07719 19.48274,9.07719 9.96276,0 15.27624,-5.09209 19.48273,-9.07719 3.54233,-3.54231 6.19906,-5.97766 11.73393,-5.97766 5.53487,0 8.19161,2.43535 11.95532,5.97766 4.20649,3.9851 9.51998,9.07719 19.48274,9.07719 9.96276,0 15.27624,-5.09209 19.48273,-9.07719 3.54233,-3.54231 6.19906,-5.97766 11.73393,-5.97766 5.53487,0 8.19161,2.43535 11.95532,5.97766 4.2065,3.9851 9.51998,9.07719 19.48274,9.07719 9.96276,0 15.27624,-5.09209 19.48274,-9.07719 3.54232,-3.54231 6.19906,-5.97766 11.95532,-5.97766 3.09952,0 5.53487,-2.43534 5.53487,-5.53487 0,-3.09952 -2.43535,-5.53487 -5.53487,-5.53487 z m -127.30199,-108.70483 77.48816,0 0,71.95329 -44.27895,0 0,-27.67434 c 0,-3.09952 -2.43535,-5.53487 -5.53487,-5.53487 l -27.67434,0 0,-38.74408 z m 15.94042,113.13272 c 0.44279,-0.66418 0.66418,-1.54975 0.66418,-2.43533 l 0,-11.06974 c 0,-3.09953 -2.43534,-5.53487 -5.53486,-5.53487 l -11.06974,0 c -3.09954,0 -5.53488,2.43534 -5.53488,5.53487 l 0,10.18416 c -5.53487,1.77116 -9.07718,5.09207 -12.17671,7.9702 -3.54232,3.54232 -6.19905,5.97766 -11.73392,5.97766 -5.53487,0 -8.19161,-2.43534 -11.95532,-5.97766 -0.88558,-0.88557 -1.77116,-1.77115 -2.87813,-2.65673 l 0,-65.31146 66.41843,0 0,68.63238 c -0.22139,-0.2214 -0.44279,-0.44279 -0.88558,-0.66419 -1.54976,-1.54975 -3.09953,-3.09952 -5.31347,-4.64929 z m 79.92351,10.62695 c -5.53487,0 -8.19161,-2.43534 -11.95532,-5.97766 -0.44279,-0.44278 -1.10697,-1.10696 -1.77116,-1.54975 0.2214,0 0.44279,0 0.66419,0 l 11.06973,0 c 3.09954,0 5.53487,-2.43535 5.53487,-5.53487 l 0,-11.06974 c 0,-3.09953 -2.43533,-5.53487 -5.53487,-5.53487 l -11.06973,0 c -3.09953,0 -5.53487,2.43534 -5.53487,5.53487 l 0,11.06974 c 0,0.66418 0.22139,1.32836 0.44279,1.77115 -2.87813,-1.99255 -6.64185,-3.32092 -11.51253,-3.76371 l 0,-9.07718 c 0,-3.09953 -2.43534,-5.53487 -5.53487,-5.53487 l -11.06974,0 c -3.09953,0 -5.53487,2.43534 -5.53487,5.53487 l 0,11.06974 c 0,2.21394 1.32837,3.9851 3.09953,4.87068 -0.88557,0.66419 -1.54976,1.54977 -2.21395,2.21394 -3.54232,3.54232 -6.19905,5.97766 -11.73392,5.97766 l 0,-40.73664 77.48817,0 0,32.10225 c -1.10697,0.88558 -1.99255,1.77116 -2.87813,2.65673 -3.76371,3.54232 -6.19906,5.97766 -11.95532,5.97766 z"
       id="path16065"
       style="fill:#ffffff;fill-opacity:1;stroke:none" />
    <path
       inkscape:connector-curvature="0"
       d="m 171.1649,280.34025 -11.06974,0 c -3.09952,0 -5.53487,2.43534 -5.53487,5.53487 l 0,11.06973 c 0,3.09954 2.43535,5.53487 5.53487,5.53487 l 11.06974,0 c 3.09953,0 5.53487,-2.43533 5.53487,-5.53487 l 0,-11.06973 c 0,-3.09953 -2.43534,-5.53487 -5.53487,-5.53487 z"
       id="path16067"
       style="fill:#ffffff;fill-opacity:1;stroke:none" />
    <path
       inkscape:connector-curvature="0"
       d="m 204.37413,280.34025 -11.06974,0 c -3.09954,0 -5.53488,2.43534 -5.53488,5.53487 l 0,11.06973 c 0,3.09954 2.43534,5.53487 5.53488,5.53487 l 11.06974,0 c 3.09952,0 5.53486,-2.43533 5.53486,-5.53487 l 0,-11.06973 c 0,-3.09953 -2.43534,-5.53487 -5.53486,-5.53487 z"
       id="path16069"
       style="fill:#ffffff;fill-opacity:1;stroke:none" />
    <path
       inkscape:connector-curvature="0"
       d="m 171.1649,313.54947 -11.06974,0 c -3.09952,0 -5.53487,2.43534 -5.53487,5.53487 l 0,11.06974 c 0,3.09952 2.43535,5.53487 5.53487,5.53487 l 11.06974,0 c 3.09953,0 5.53487,-2.43535 5.53487,-5.53487 l 0,-11.06974 c 0,-3.09953 -2.43534,-5.53487 -5.53487,-5.53487 z"
       id="path16071"
       style="fill:#ffffff;fill-opacity:1;stroke:none" />
    <path
       inkscape:connector-curvature="0"
       d="m 226.5136,247.13103 0,-11.06973 c 0,-3.09954 -2.43535,-5.53487 -5.53487,-5.53487 l -11.06974,0 c -3.09953,0 -5.53486,2.43533 -5.53486,5.53487 l 0,11.06973 c 0,3.09954 2.43533,5.53487 5.53486,5.53487 l 11.06974,0 c 3.09952,0 5.53487,-2.43533 5.53487,-5.53487 z"
       id="path16073"
       style="fill:#ffffff;fill-opacity:1;stroke:none" />
    <path
       inkscape:connector-curvature="0"
       d="m 243.11821,252.6659 11.06974,0 c 3.09952,0 5.53486,-2.43533 5.53486,-5.53487 l 0,-11.06973 c 0,-3.09954 -2.43534,-5.53487 -5.53486,-5.53487 l -11.06974,0 c -3.09954,0 -5.53487,2.43533 -5.53487,5.53487 l 0,11.06973 c 0,3.09954 2.43533,5.53487 5.53487,5.53487 z"
       id="path16075"
       style="fill:#ffffff;fill-opacity:1;stroke:none" />
    <path
       inkscape:connector-curvature="0"
       d="m 243.11821,280.34025 11.06974,0 c 3.09952,0 5.53486,-2.43534 5.53486,-5.53487 l 0,-11.06974 c 0,-3.09952 -2.43534,-5.53487 -5.53486,-5.53487 l -11.06974,0 c -3.09954,0 -5.53487,2.43535 -5.53487,5.53487 l 0,11.06974 c 0,3.09953 2.43533,5.53487 5.53487,5.53487 z"
       id="path16077"
       style="fill:#ffffff;fill-opacity:1;stroke:none" />
  </g>
</svg>
