<?xml version="1.0" encoding="UTF-8" standalone="no"?>
<!-- Created with Inkscape (http://www.inkscape.org/) -->

<svg
   xmlns:dc="http://purl.org/dc/elements/1.1/"
   xmlns:cc="http://creativecommons.org/ns#"
   xmlns:rdf="http://www.w3.org/1999/02/22-rdf-syntax-ns#"
   xmlns:svg="http://www.w3.org/2000/svg"
   xmlns="http://www.w3.org/2000/svg"
   xmlns:sodipodi="http://sodipodi.sourceforge.net/DTD/sodipodi-0.dtd"
   xmlns:inkscape="http://www.inkscape.org/namespaces/inkscape"
   width="84.965637mm"
   height="98.109871mm"
   viewBox="0 0 301.05935 347.6334"
   id="svg5101"
   version="1.1"
   inkscape:version="0.91 r13725"
   sodipodi:docname="remotesensing.svg">
  <defs
     id="defs5103" />
  <sodipodi:namedview
     id="base"
     pagecolor="#ffffff"
     bordercolor="#666666"
     borderopacity="1.0"
     inkscape:pageopacity="0.0"
     inkscape:pageshadow="2"
     inkscape:zoom="0.59978497"
     inkscape:cx="698.816"
     inkscape:cy="-116.6047"
     inkscape:document-units="px"
     inkscape:current-layer="layer1"
     showgrid="false"
     fit-margin-top="0"
     fit-margin-left="0"
     fit-margin-right="0"
     fit-margin-bottom="0"
     inkscape:window-width="1875"
     inkscape:window-height="1056"
     inkscape:window-x="45"
     inkscape:window-y="24"
     inkscape:window-maximized="1" />
  <metadata
     id="metadata5106">
    <rdf:RDF>
      <cc:Work
         rdf:about="">
        <dc:format>image/svg+xml</dc:format>
        <dc:type
           rdf:resource="http://purl.org/dc/dcmitype/StillImage" />
        <dc:title></dc:title>
      </cc:Work>
    </rdf:RDF>
  </metadata>
  <g
     inkscape:label="Layer 1"
     inkscape:groupmode="layer"
     id="layer1"
     transform="translate(-75.18462,-127.11693)">
    <path
       sodipodi:type="star"
       style="opacity:1;fill:#9300f5;fill-opacity:1;stroke:none;stroke-width:3.9000001;stroke-linecap:round;stroke-linejoin:miter;stroke-miterlimit:3.70000005;stroke-dasharray:none;stroke-dashoffset:0;stroke-opacity:1"
       id="path5651"
       sodipodi:sides="6"
       sodipodi:cx="225.71429"
       sodipodi:cy="300.93362"
       sodipodi:r1="173.8167"
       sodipodi:r2="150.52968"
       sodipodi:arg1="0.52359878"
       sodipodi:arg2="1.0471976"
       inkscape:flatsided="true"
       inkscape:rounded="0"
       inkscape:randomized="0"
       d="m 376.24397,387.84197 -150.52968,86.90835 -150.52967,-86.90835 0,-173.81669 150.52968,-86.90835 150.52967,86.90835 z" />
    <path
       inkscape:connector-curvature="0"
       d="m 155.62642,308.63995 c -0.79925,2.8973 -3.06056,9.75677 -6.68645,10.96296 -0.41668,0.14377 -0.86017,0.212 -1.31341,0.212 -3.71118,0 -7.47596,-5.04408 -8.92339,-7.21767 -0.35333,-0.52634 -0.48248,-1.1672 -0.37039,-1.79101 l 2.33197,-12.56147 c 0.16083,-0.86505 0.77733,-1.57658 1.6107,-1.8568 0.83581,-0.28754 1.76665,-0.0902 2.41482,0.5044 l 10.22949,9.30109 c 0.67986,0.61894 0.95277,1.5644 0.70666,2.4465 z m 179.90797,4.52262 -13.82126,13.81639 c -0.68473,0.67986 -1.60826,1.0673 -2.57565,1.0673 -0.96739,0 -1.89336,-0.38744 -2.58052,-1.0673 L 276.57714,286.9894 c -1.42307,-1.42307 -1.42307,-3.73067 0,-5.15374 l 4.33985,-4.33986 -2.80226,-2.79983 -7.57343,7.56612 -5.34868,5.34624 -1.41819,1.42307 c -1.83731,1.83487 -4.27894,2.851 -6.88139,2.851 -2.59758,0 -5.03921,-1.01613 -6.87165,-2.851 l -2.21744,-2.21501 -3.41633,-3.42121 -1.14771,1.14528 -1.22325,1.22325 c 0.1657,0.19981 0.35576,0.38257 0.51902,0.58238 1.11847,1.38408 2.13216,2.82664 3.05082,4.32524 1.70329,2.77303 3.04107,5.73125 4.03526,8.80156 0.51416,1.5912 0.91866,3.21164 1.23788,4.86132 0.48978,2.5391 0.77488,5.12693 0.77488,7.75375 0,1.65943 -0.0755,3.31642 -0.27048,4.99535 -0.005,0.0146 -0.0146,0.0244 -0.0146,0.039 -0.17544,1.3719 -1.10385,2.52692 -2.41238,2.98259 -0.38988,0.13402 -0.79439,0.20225 -1.19889,0.20225 -0.95277,0 -1.8763,-0.37282 -2.57565,-1.0673 l -13.89193,-13.89193 -4.41783,-4.41784 -0.78707,0.78464 -5.21953,5.2244 c -0.71397,0.71397 -1.64725,1.0673 -2.58052,1.0673 -0.93084,0 -1.86656,-0.35577 -2.57809,-1.0673 -1.42794,-1.42306 -1.42794,-3.73067 0,-5.15617 l 6.0066,-6.00904 -18.30246,-18.30489 c -0.98932,-0.98689 -1.32316,-2.45381 -0.86748,-3.7721 0.45811,-1.32315 1.63018,-2.26374 3.01913,-2.42944 1.6107,-0.1925 3.2482,-0.2851 4.87108,-0.2851 3.29449,0 6.50613,0.42887 9.62761,1.16964 1.62044,0.38501 3.20677,0.86261 4.75898,1.44256 4.36423,1.618 8.44823,3.95729 12.07412,7.00079 l 2.35146,-2.34903 -5.63134,-5.63377 c -1.82756,-1.82513 -2.82663,-4.24483 -2.84612,-6.82291 0,-0.0171 -0.01,-0.0341 -0.01,-0.0512 0,-2.18334 0.75783,-4.23508 2.07611,-5.9335 0.25343,-0.32165 0.48492,-0.65792 0.78464,-0.95033 l 1.41332,-1.42307 5.34867,-5.34624 7.57099,-7.57099 -2.80714,-2.80714 -4.33985,4.34473 c -0.67986,0.68229 -1.60826,1.07217 -2.57565,1.07217 -0.96739,0 -1.89823,-0.38744 -2.5854,-1.07217 l -39.97495,-39.98225 c -0.68716,-0.6823 -1.06973,-1.61557 -1.06973,-2.57809 0,-0.96739 0.38257,-1.89336 1.06973,-2.58052 l 13.8164,-13.81883 c 1.36702,-1.36702 3.78671,-1.36702 5.15617,0 l 39.97982,39.98469 c 1.42306,1.42063 1.42306,3.73311 0,5.15373 l -4.32037,4.3155 2.80715,2.80714 14.33542,-14.34517 c 1.84706,-1.83488 4.28868,-2.84857 6.88139,-2.84857 2.60245,0 5.03921,1.01613 6.87165,2.84857 l 16.42859,16.42615 c 1.83731,1.83244 2.851,4.27894 2.851,6.87896 0.005,2.59758 -1.00881,5.03433 -2.84125,6.87896 l -14.35005,14.34273 2.80227,2.8047 4.32037,-4.32036 c 1.36701,-1.36946 3.78427,-1.36946 5.15373,0 l 39.98713,39.98713 c 1.42306,1.41575 1.42306,3.7331 0.005,5.15617 z m -43.07693,-63.12655 c 0.45811,-0.46054 0.7091,-1.06973 0.7091,-1.72278 0,-0.65061 -0.25343,-1.25737 -0.71397,-1.71791 l -16.41885,-16.4286 c -0.47029,-0.45811 -1.07461,-0.71397 -1.72766,-0.71397 -0.65305,0 -1.26711,0.2583 -1.72278,0.71641 l -25.91975,25.92462 -5.22684,5.22197 -0.92353,0.92596 -1.77152,1.76421 c -0.45811,0.46055 -0.71397,1.06974 -0.71397,1.71792 0,0.55558 0.22418,1.05267 0.54827,1.47423 0.0609,0.0804 0.0999,0.17545 0.1657,0.25099 l 0.28997,0.28997 7.91945,7.91945 0,0 0.005,0.005 0.74808,0.74565 7.4589,7.46621 c 0.92353,0.91622 2.52692,0.91622 3.4407,0 l 2.69018,-2.69261 5.22927,-5.22927 8.99406,-8.99162 0.0146,-0.0146 16.92569,-16.91108 z m -13.36316,53.92049 c -0.40937,-1.82756 -0.89916,-3.59421 -1.41819,-5.3243 l -6.37211,-6.36968 c -0.039,-0.039 -0.0755,-0.0731 -0.10965,-0.10965 l -2.14678,2.14921 c -3.15073,3.14585 -7.29077,4.91981 -11.70861,5.0319 0.31922,1.16721 0.5897,2.3734 0.83337,3.59909 0.60432,3.14585 0.90891,6.23078 0.90891,9.16463 0,1.08435 -0.0341,2.12728 -0.0902,3.15316 l 0.0658,2.13703 -0.23881,-0.20712 c -0.0244,0.26073 -0.0341,0.53121 -0.0609,0.78707 l -0.0853,0.54339 c -0.039,0.22906 -0.0853,0.45568 -0.13402,0.67742 l -0.0244,0.095 c -0.87967,3.66001 -3.53086,6.61579 -7.13969,7.86341 -1.34752,0.46786 -2.7316,0.63355 -4.09862,0.57507 -3.57472,2.96553 -7.52957,5.99685 -10.88985,7.95113 -5.97736,3.45775 -15.76093,-3.31886 -19.03105,-6.22591 -0.55802,-0.49953 -1.31585,-0.71396 -2.04687,-0.57994 -0.7359,0.13646 -1.36946,0.597 -1.72035,1.2598 -2.05418,3.8988 -4.98073,7.72451 -6.10407,8.03398 -3.80621,0.54096 -10.24655,7.11044 -12.13016,9.11346 -0.0585,0.056 -0.11209,0.12671 -0.16083,0.1925 -2.94359,3.85738 -7.48083,7.54663 -9.0769,6.7425 -2.41483,-1.19645 -3.85495,-0.33384 -4.508,0.29241 -0.68716,0.66767 -2.48792,2.40264 0.95277,10.22462 -0.16082,2.51473 -0.52634,11.72566 2.03469,18.98962 0.65549,1.83975 0.86749,3.85982 1.07948,5.80678 0.20225,1.87143 0.43131,3.88663 1.09898,5.7678 -34.44595,-6.28926 -60.6508,-36.49526 -60.6508,-72.72736 0,-30.8298 18.97744,-57.30513 45.85727,-68.38505 -5.72637,6.62553 -12.18377,15.76092 -12.18377,23.31486 0,8.59443 4.92711,10.77045 7.05196,11.30653 4.61765,1.1599 10.05405,-1.34752 12.41039,-5.71175 1.58876,-2.95334 4.51043,-3.11417 7.82685,-3.03376 0.10722,0.005 0.21444,0.005 0.31678,0.01 -0.0439,1.50592 -0.26073,3.75991 -0.52634,5.75805 l -5.9603,9.92977 c -2.59514,1.58633 -6.04802,2.98746 -7.23959,2.6122 -2.30517,-0.75539 -4.51774,0.10235 -5.49488,2.12973 -1.15259,2.37583 -0.35577,6.08944 3.39927,8.5993 0.33384,0.21687 0.41912,0.41425 0.45811,0.66767 0.20956,1.39626 -1.29635,4.02795 -2.38558,5.35842 -0.0731,0.0926 -0.14377,0.18763 -0.20225,0.29241 l -4.64689,7.7367 c -0.37283,0.62137 -0.45324,1.37433 -0.20956,2.06636 1.17208,3.30668 2.46355,9.09397 1.51322,11.00926 -1.71791,3.43095 0.85043,7.99986 4.21315,10.26117 1.4523,0.9747 3.24575,1.63506 5.16104,1.63506 2.35147,0 4.88813,-0.99907 7.19574,-3.62833 5.75317,-6.5768 4.89056,-12.40551 4.09131,-14.92999 0.8358,-1.38407 2.75353,-3.89149 5.27313,-2.89974 5.94568,2.34904 13.59709,2.37828 13.92118,2.37828 1.13309,0 2.1151,-0.78464 2.37096,-1.88605 0.2851,-1.24275 1.57414,-7.61242 -1.16477,-10.94834 -0.51416,-0.62868 -1.13309,-1.10872 -1.83731,-1.44255 1.50104,-0.67255 3.7794,-1.25981 6.68158,-1.25493 -0.57264,-0.38014 -1.11604,-0.809 -1.61313,-1.3061 -2.08587,-2.07855 -3.24089,-4.8662 -3.24089,-7.83173 0,-2.97284 1.15502,-5.76049 3.25794,-7.86097 l 0.73103,-0.73102 -13.03176,-13.0342 c -2.98746,-2.97528 -4.02552,-7.49058 -2.63901,-11.48442 1.37677,-3.98409 4.98073,-6.8887 9.17682,-7.38824 5.61915,-0.66279 11.3041,-0.34845 17.10845,1.03075 0.51415,0.12184 1.02343,0.25342 1.53272,0.38988 0.095,-3.65269 1.34752,-7.12019 3.64051,-10.06379 0.50684,-0.66524 0.93084,-1.18427 1.41819,-1.66431 l 2.11997,-2.12485 c -0.039,-0.039 -0.0755,-0.0731 -0.10965,-0.10965 l -6.30876,-6.30632 c -7.59292,-2.35878 -15.63665,-3.68193 -23.99471,-3.68193 -44.78997,0 -81.22919,36.43678 -81.22919,81.23162 0,44.79241 36.43922,81.22675 81.22919,81.22675 44.78997,0 81.22675,-36.43678 81.22675,-81.22675 0,-6.40379 -0.77489,-12.62238 -2.19308,-18.59974 l 0,-0.0171 0,0 z"
       id="path14362"
       style="fill:#ffffff;fill-opacity:1" />
  </g>
</svg>
