<?xml version="1.0" encoding="UTF-8" standalone="no"?>
<!-- Created with Inkscape (http://www.inkscape.org/) -->

<svg
   xmlns:dc="http://purl.org/dc/elements/1.1/"
   xmlns:cc="http://creativecommons.org/ns#"
   xmlns:rdf="http://www.w3.org/1999/02/22-rdf-syntax-ns#"
   xmlns:svg="http://www.w3.org/2000/svg"
   xmlns="http://www.w3.org/2000/svg"
   xmlns:sodipodi="http://sodipodi.sourceforge.net/DTD/sodipodi-0.dtd"
   xmlns:inkscape="http://www.inkscape.org/namespaces/inkscape"
   width="84.965637mm"
   height="98.109871mm"
   viewBox="0 0 301.05935 347.6334"
   id="svg5101"
   version="1.1"
   inkscape:version="0.91 r13725"
   sodipodi:docname="soils.svg">
  <defs
     id="defs5103" />
  <sodipodi:namedview
     id="base"
     pagecolor="#ffffff"
     bordercolor="#666666"
     borderopacity="1.0"
     inkscape:pageopacity="0.0"
     inkscape:pageshadow="2"
     inkscape:zoom="0.59978497"
     inkscape:cx="-352.69853"
     inkscape:cy="-1.3347389"
     inkscape:document-units="px"
     inkscape:current-layer="layer1"
     showgrid="false"
     fit-margin-top="0"
     fit-margin-left="0"
     fit-margin-right="0"
     fit-margin-bottom="0"
     inkscape:window-width="1875"
     inkscape:window-height="1056"
     inkscape:window-x="45"
     inkscape:window-y="24"
     inkscape:window-maximized="1" />
  <metadata
     id="metadata5106">
    <rdf:RDF>
      <cc:Work
         rdf:about="">
        <dc:format>image/svg+xml</dc:format>
        <dc:type
           rdf:resource="http://purl.org/dc/dcmitype/StillImage" />
        <dc:title />
      </cc:Work>
    </rdf:RDF>
  </metadata>
  <g
     inkscape:label="Layer 1"
     inkscape:groupmode="layer"
     id="layer1"
     transform="translate(-75.18462,-127.11693)">
    <path
       sodipodi:type="star"
       style="opacity:1;fill:#eaad28;fill-opacity:1;stroke:none;stroke-width:3.9000001;stroke-linecap:round;stroke-linejoin:miter;stroke-miterlimit:3.70000005;stroke-dasharray:none;stroke-dashoffset:0;stroke-opacity:1"
       id="path5651"
       sodipodi:sides="6"
       sodipodi:cx="225.71429"
       sodipodi:cy="300.93362"
       sodipodi:r1="173.8167"
       sodipodi:r2="150.52968"
       sodipodi:arg1="0.52359878"
       sodipodi:arg2="1.0471976"
       inkscape:flatsided="true"
       inkscape:rounded="0"
       inkscape:randomized="0"
       d="m 376.24397,387.84197 -150.52968,86.90835 -150.52967,-86.90835 0,-173.81669 150.52968,-86.90835 150.52967,86.90835 z" />
    <g
       transform="matrix(-6.6778355,0,0,6.6778355,534.39425,494.37909)"
       style="fill:#cbcbcb;fill-opacity:1;fill-rule:evenodd;stroke:none;stroke-width:1"
       id="g22473">
      <g
         style="fill:#cbcbcb;fill-opacity:1"
         id="g22475">
        <path
           inkscape:connector-curvature="0"
           d="m 23.8594,22.4888 -4.475,-7.521 c -0.434,-0.731 -1.242,-1.185 -2.108,-1.185 l -0.794,0 c -0.418,0 -0.826,-0.076 -1.215,-0.225 l -0.456,-0.175 c -0.349,-0.134 -0.709,-0.228 -1.075,-0.292 0.737,-1.411 1.582,-3.664 1.257,-6.208 l 0,-10e-4 -10e-4,-0.004 0,-0.006 c 0,0 0,0 0,-0.001 l -0.226,-1.893 c -0.293,-2.458 -2.267,-4.365 -4.733,-4.629 l -1.857,-0.333 c -0.297,-0.05 -0.609,0.033 -0.838,0.234 -0.229,0.202 -0.353,0.498 -0.337,0.803 l 0.112,2.089 c 0.293,2.458 2.267,4.366 4.803,4.639 l 1.142,0.123 c 0.034,2.356 -1.109,4.374 -1.614,5.144 -0.587,0.106 -1.12,0.443 -1.449,0.971 l -0.571,0.981 -0.424,0 c -0.165,0 -1.626,0.023 -2.2,0.794 l -1.141,1.535 c -0.171,0.23 -0.453,0.367 -0.756,0.367 -0.995,0 -1.911,0.486 -2.45,1.3 l -2.287,3.452 c -0.203,0.307 -0.222,0.701 -0.047,1.025 0.174,0.325 0.512,0.527 0.881,0.527 l 22,0 c 0.359,0 0.691,-0.193 0.869,-0.506 0.177,-0.312 0.174,-0.696 -0.01,-1.005"
           id="path22477"
           style="fill:#cbcbcb;fill-opacity:1" />
      </g>
    </g>
    <path
       inkscape:connector-curvature="0"
       d="m 248.92271,331.37612 c 2.95657,1.81192 3.95814,5.98433 2.14626,8.9409 l -24.16273,39.84213 c -12.90985,21.06554 -40.03053,27.5758 -61.09609,14.66597 l 0,0 c -21.06555,-12.90983 -27.57582,-40.03054 -14.66596,-61.0961 l 24.53227,-39.61563 c 1.81191,-2.95657 5.98431,-3.95816 8.9409,-2.14624 l 64.30535,39.40897 z m 48.78884,-113.20703 -12.45684,20.3264 c -1.35896,2.21744 -4.63726,3.00438 -6.85471,1.64546 l -25.86996,-15.85418 c -2.21744,-1.35893 -3.00439,-4.63727 -1.64545,-6.85469 l 12.45686,-20.3264 c 1.35892,-2.21743 4.63724,-3.00439 6.85468,-1.64545 l 25.86997,15.85418 c 2.51547,1.2874 3.30243,4.56571 1.64545,6.85468 z m -10.99149,-1.14395 -17.36985,-10.64494 -7.24762,11.82625 17.36984,10.64496 7.24763,-11.82627 z m -73.50302,85.09768 13.67412,8.38008 42.35333,-69.10979 -13.67412,-8.38008 -42.35333,69.10979 z"
       id="path23309"
       style="fill:#ffffff;fill-opacity:1" />
  </g>
</svg>
