<?xml version="1.0" encoding="UTF-8" standalone="no"?>
<!-- Created with Inkscape (http://www.inkscape.org/) -->

<svg
   xmlns:dc="http://purl.org/dc/elements/1.1/"
   xmlns:cc="http://creativecommons.org/ns#"
   xmlns:rdf="http://www.w3.org/1999/02/22-rdf-syntax-ns#"
   xmlns:svg="http://www.w3.org/2000/svg"
   xmlns="http://www.w3.org/2000/svg"
   xmlns:sodipodi="http://sodipodi.sourceforge.net/DTD/sodipodi-0.dtd"
   xmlns:inkscape="http://www.inkscape.org/namespaces/inkscape"
   width="84.965637mm"
   height="98.109871mm"
   viewBox="0 0 301.05935 347.6334"
   id="svg5101"
   version="1.1"
   inkscape:version="0.91 r13725"
   sodipodi:docname="topography.svg">
  <defs
     id="defs5103" />
  <sodipodi:namedview
     id="base"
     pagecolor="#ffffff"
     bordercolor="#666666"
     borderopacity="1.0"
     inkscape:pageopacity="0.0"
     inkscape:pageshadow="2"
     inkscape:zoom="0.59978497"
     inkscape:cx="247.50322"
     inkscape:cy="-136.65439"
     inkscape:document-units="px"
     inkscape:current-layer="layer1"
     showgrid="false"
     fit-margin-top="0"
     fit-margin-left="0"
     fit-margin-right="0"
     fit-margin-bottom="0"
     inkscape:window-width="1875"
     inkscape:window-height="1056"
     inkscape:window-x="45"
     inkscape:window-y="24"
     inkscape:window-maximized="1" />
  <metadata
     id="metadata5106">
    <rdf:RDF>
      <cc:Work
         rdf:about="">
        <dc:format>image/svg+xml</dc:format>
        <dc:type
           rdf:resource="http://purl.org/dc/dcmitype/StillImage" />
        <dc:title></dc:title>
      </cc:Work>
    </rdf:RDF>
  </metadata>
  <g
     inkscape:label="Layer 1"
     inkscape:groupmode="layer"
     id="layer1"
     transform="translate(-75.18462,-127.11693)">
    <path
       sodipodi:type="star"
       style="opacity:1;fill:#f56200;fill-opacity:1;stroke:none;stroke-width:3.9000001;stroke-linecap:round;stroke-linejoin:miter;stroke-miterlimit:3.70000005;stroke-dasharray:none;stroke-dashoffset:0;stroke-opacity:1"
       id="path5651"
       sodipodi:sides="6"
       sodipodi:cx="225.71429"
       sodipodi:cy="300.93362"
       sodipodi:r1="173.8167"
       sodipodi:r2="150.52968"
       sodipodi:arg1="0.52359878"
       sodipodi:arg2="1.0471976"
       inkscape:flatsided="true"
       inkscape:rounded="0"
       inkscape:randomized="0"
       d="m 376.24397,387.84197 -150.52968,86.90835 -150.52967,-86.90835 0,-173.81669 150.52968,-86.90835 150.52967,86.90835 z" />
    <g
       transform="matrix(4.3539717,0,0,4.3539717,112.51103,179.51266)"
       id="g16924"
       style="fill:#ffffff;fill-opacity:1;stroke:none;stroke-opacity:1">
      <polygon
         points="16.3,17.5 21.7,20.4 27.2,17.5 21.7,8.9 "
         id="polygon16926"
         style="fill:#ffffff;fill-opacity:1;stroke:none;stroke-opacity:1" />
      <path
         inkscape:connector-curvature="0"
         d="m 28.2,19.1 -6,3.3 c -0.1,0.1 -0.3,0.1 -0.5,0.1 -0.2,0 -0.3,0 -0.5,-0.1 l -6,-3.3 -15.2,24 19.5,0 12,-18.9 -3.3,-5.1 z"
         id="path16928"
         style="fill:#ffffff;fill-opacity:1;stroke:none;stroke-opacity:1" />
      <path
         inkscape:connector-curvature="0"
         d="m 34.1,31.6 3.1,-1.5 c 0.2,-0.1 0.5,-0.1 0.7,0 l 2,0.7 2.2,-3.3 -5.3,-8.3 -6.1,9.6 3.4,2.8 z"
         id="path16930"
         style="fill:#ffffff;fill-opacity:1;stroke:none;stroke-opacity:1" />
      <path
         inkscape:connector-curvature="0"
         d="m 43.3,29.4 -2.2,3.2 C 40.9,33 40.4,33.1 40,33 l -2.3,-0.8 -3.3,1.5 c -0.1,0.1 -0.3,0.1 -0.4,0.1 -0.2,0 -0.4,-0.1 -0.6,-0.2 l -3.6,-3 -8,12.6 30.2,0 -8.7,-13.8 z"
         id="path16932"
         style="fill:#ffffff;fill-opacity:1;stroke:none;stroke-opacity:1" />
    </g>
  </g>
</svg>
