<?xml version="1.0" encoding="UTF-8" standalone="no"?>
<!-- Created with Inkscape (http://www.inkscape.org/) -->

<svg
   xmlns:dc="http://purl.org/dc/elements/1.1/"
   xmlns:cc="http://creativecommons.org/ns#"
   xmlns:rdf="http://www.w3.org/1999/02/22-rdf-syntax-ns#"
   xmlns:svg="http://www.w3.org/2000/svg"
   xmlns="http://www.w3.org/2000/svg"
   xmlns:sodipodi="http://sodipodi.sourceforge.net/DTD/sodipodi-0.dtd"
   xmlns:inkscape="http://www.inkscape.org/namespaces/inkscape"
   width="84.965637mm"
   height="98.109871mm"
   viewBox="0 0 301.05935 347.6334"
   id="svg5101"
   version="1.1"
   inkscape:version="0.91 r13725"
   sodipodi:docname="weather-and-climate.svg">
  <defs
     id="defs5103" />
  <sodipodi:namedview
     id="base"
     pagecolor="#ffffff"
     bordercolor="#666666"
     borderopacity="1.0"
     inkscape:pageopacity="0.0"
     inkscape:pageshadow="2"
     inkscape:zoom="0.59978497"
     inkscape:cx="-175.66045"
     inkscape:cy="147.63562"
     inkscape:document-units="px"
     inkscape:current-layer="layer1"
     showgrid="false"
     fit-margin-top="0"
     fit-margin-left="0"
     fit-margin-right="0"
     fit-margin-bottom="0"
     inkscape:window-width="1875"
     inkscape:window-height="1056"
     inkscape:window-x="45"
     inkscape:window-y="24"
     inkscape:window-maximized="1" />
  <metadata
     id="metadata5106">
    <rdf:RDF>
      <cc:Work
         rdf:about="">
        <dc:format>image/svg+xml</dc:format>
        <dc:type
           rdf:resource="http://purl.org/dc/dcmitype/StillImage" />
        <dc:title></dc:title>
      </cc:Work>
    </rdf:RDF>
  </metadata>
  <g
     inkscape:label="Layer 1"
     inkscape:groupmode="layer"
     id="layer1"
     transform="translate(-75.18462,-127.11693)">
    <path
       sodipodi:type="star"
       style="opacity:1;fill:#0084d1;fill-opacity:1;stroke:none;stroke-width:3.9000001;stroke-linecap:round;stroke-linejoin:miter;stroke-miterlimit:3.70000005;stroke-dasharray:none;stroke-dashoffset:0;stroke-opacity:1"
       id="path5651"
       sodipodi:sides="6"
       sodipodi:cx="225.71429"
       sodipodi:cy="300.93362"
       sodipodi:r1="173.8167"
       sodipodi:r2="150.52968"
       sodipodi:arg1="0.52359878"
       sodipodi:arg2="1.0471976"
       inkscape:flatsided="true"
       inkscape:rounded="0"
       inkscape:randomized="0"
       d="m 376.24397,387.84197 -150.52968,86.90835 -150.52967,-86.90835 0,-173.81669 150.52968,-86.90835 150.52967,86.90835 z" />
    <g
       transform="matrix(2.8777464,0,0,2.8777464,81.828413,157.0463)"
       id="g10180"
       style="fill:#ffffff;fill-opacity:1">
      <path
         inkscape:connector-curvature="0"
         d="m 62.314,21.653 c 1.104,0 2,-0.896 2,-2 l 0,-5.833 c 0,-1.104 -0.896,-2 -2,-2 -1.105,0 -2,0.896 -2,2 l 0,5.833 c 0,1.104 0.895,2 2,2 z"
         id="path10182"
         style="fill:#ffffff;fill-opacity:1" />
      <path
         inkscape:connector-curvature="0"
         d="m 87.316,36.82 -5.834,0 c -1.104,0 -2,0.895 -2,2 0,1.104 0.896,2 2,2 l 5.834,0 c 1.104,0 2,-0.896 2,-2 0,-1.106 -0.896,-2 -2,-2 z"
         id="path10184"
         style="fill:#ffffff;fill-opacity:1" />
      <path
         inkscape:connector-curvature="0"
         d="m 77.281,26.681 4.125,-4.125 c 0.781,-0.781 0.779,-2.048 0,-2.828 -0.781,-0.782 -2.047,-0.781 -2.828,0 l -4.125,4.124 c -0.781,0.781 -0.781,2.047 0,2.829 0.781,0.78 2.047,0.78 2.828,0 z"
         id="path10186"
         style="fill:#ffffff;fill-opacity:1" />
      <path
         inkscape:connector-curvature="0"
         d="m 77.283,50.959 c -0.781,-0.781 -2.047,-0.781 -2.83,0 -0.779,0.781 -0.779,2.048 0,2.828 l 4.125,4.125 c 0.781,0.781 2.049,0.781 2.828,0 0.783,-0.781 0.781,-2.047 0,-2.828 l -4.123,-4.125 z"
         id="path10188"
         style="fill:#ffffff;fill-opacity:1" />
      <path
         inkscape:connector-curvature="0"
         d="m 47.348,26.681 c 0.781,0.781 2.047,0.78 2.828,0 0.781,-0.782 0.781,-2.047 0,-2.829 l -4.125,-4.125 c -0.781,-0.78 -2.047,-0.781 -2.828,0 -0.781,0.78 -0.781,2.048 0,2.828 l 4.125,4.126 z"
         id="path10190"
         style="fill:#ffffff;fill-opacity:1" />
      <path
         inkscape:connector-curvature="0"
         d="m 76.564,38.82 c 0,-7.857 -6.393,-14.25 -14.25,-14.25 -6.461,0 -11.904,4.331 -13.641,10.237 -2.324,-1.023 -4.887,-1.603 -7.586,-1.603 -9.031,0 -16.596,6.368 -18.465,14.847 -6.605,0.141 -11.939,5.546 -11.939,12.185 0,6.578 5.238,11.941 11.76,12.176 l 0,-0.014 1.791,0 c 1.105,0 2,-0.895 2,-2 0,-1.104 -0.895,-2 -2,-2 l -1.926,0 c -4.252,-0.297 -7.625,-3.836 -7.625,-8.162 0,-4.281 3.301,-7.801 7.49,-8.162 0,0.016 -0.002,0.031 -0.002,0.047 l 0,0.916 0,1.58 0,0.42 c 0,1.105 0.895,2 2,2 1.104,0 2,-0.895 2,-2 l 0,-0.352 0,-1.648 0,-0.916 c 0,-8.225 6.691,-14.917 14.916,-14.917 8.225,0 14.916,6.691 14.916,14.917 l 0,0.842 c 0.002,0 0.006,0 0.008,0 0,0.025 -0.008,0.049 -0.008,0.074 l 0,2 c 0,1.105 0.896,2 2,2 1.105,0 2,-0.895 2,-2 l 0,-1.371 0,-0.629 0,-0.916 c 0,-0.016 -0.002,-0.031 -0.002,-0.047 4.189,0.361 7.49,3.881 7.49,8.162 0,4.176 -3.141,7.625 -7.182,8.129 l 0,0.033 -1.412,0 c -1.104,0 -2,0.896 -2,2 0,1.105 0.896,2 2,2 l 1.938,0 c 0.025,-0.033 0.057,-0.063 0.082,-0.096 5.959,-0.799 10.574,-5.893 10.574,-12.066 0,-3.266 -1.295,-6.229 -3.393,-8.418 4.98,-2.221 8.466,-7.202 8.466,-12.998 z M 63.846,48.943 c -1.332,-0.539 -2.777,-0.859 -4.293,-0.892 -1.004,-4.556 -3.662,-8.489 -7.299,-11.166 0.908,-4.729 5.07,-8.315 10.061,-8.315 5.652,0 10.25,4.599 10.25,10.25 -0.001,5.131 -3.792,9.38 -8.719,10.123 z"
         id="path10192"
         style="fill:#ffffff;fill-opacity:1" />
      <path
         inkscape:connector-curvature="0"
         d="m 42.332,61.15 -1.387,-1.334 -1.387,1.334 c -0.986,0.949 -9.641,9.445 -9.641,15.428 0,6.396 4.947,11.602 11.027,11.602 6.08,0 11.025,-5.205 11.025,-11.602 C 51.971,70.596 43.318,62.1 42.332,61.15 Z m -1.387,23.03 c -3.875,0 -7.027,-3.41 -7.027,-7.602 0,-2.805 3.875,-7.816 7.027,-11.143 3.15,3.326 7.025,8.338 7.025,11.143 10e-4,4.192 -3.152,7.602 -7.025,7.602 z"
         id="path10194"
         style="fill:#ffffff;fill-opacity:1" />
    </g>
  </g>
</svg>
