<?xml version="1.0" encoding="UTF-8" standalone="no"?>
<!-- Created with Inkscape (http://www.inkscape.org/) -->

<svg
   xmlns:dc="http://purl.org/dc/elements/1.1/"
   xmlns:cc="http://creativecommons.org/ns#"
   xmlns:rdf="http://www.w3.org/1999/02/22-rdf-syntax-ns#"
   xmlns:svg="http://www.w3.org/2000/svg"
   xmlns="http://www.w3.org/2000/svg"
   xmlns:sodipodi="http://sodipodi.sourceforge.net/DTD/sodipodi-0.dtd"
   xmlns:inkscape="http://www.inkscape.org/namespaces/inkscape"
   width="81.948647mm"
   height="21.046286mm"
   viewBox="0 0 290.36926 74.573453"
   id="svg5523"
   version="1.1"
   inkscape:version="0.91 r13725"
   sodipodi:docname="geofolio_black_2.svg">
  <defs
     id="defs5525">
    <clipPath
       clipPathUnits="userSpaceOnUse"
       id="clipPath6146">
      <rect
         style="fill:#ffffff;fill-opacity:1;stroke:none;stroke-width:4;stroke-linecap:round;stroke-linejoin:miter;stroke-miterlimit:4;stroke-dasharray:none;stroke-dashoffset:0;stroke-opacity:1"
         id="rect6148"
         width="186.87822"
         height="59.093925"
         x="77.276665"
         y="24.570917" />
    </clipPath>
  </defs>
  <sodipodi:namedview
     id="base"
     pagecolor="#000000"
     bordercolor="#666666"
     borderopacity="1.0"
     inkscape:pageopacity="0"
     inkscape:pageshadow="2"
     inkscape:zoom="1.979899"
     inkscape:cx="51.609176"
     inkscape:cy="13.738947"
     inkscape:document-units="px"
     inkscape:current-layer="layer1"
     showgrid="false"
     fit-margin-top="0"
     fit-margin-left="0"
     fit-margin-right="0"
     fit-margin-bottom="0"
     inkscape:window-width="668"
     inkscape:window-height="405"
     inkscape:window-x="825"
     inkscape:window-y="337"
     inkscape:window-maximized="0" />
  <metadata
     id="metadata5528">
    <rdf:RDF>
      <cc:Work
         rdf:about="">
        <dc:format>image/svg+xml</dc:format>
        <dc:type
           rdf:resource="http://purl.org/dc/dcmitype/StillImage" />
        <dc:title></dc:title>
      </cc:Work>
    </rdf:RDF>
  </metadata>
  <g
     inkscape:label="Layer 1"
     inkscape:groupmode="layer"
     id="layer1"
     transform="translate(-115.67591,-206.50406)">
    <g
       id="g12497"
       transform="matrix(0.22300641,0,0,0.22300641,111.96197,190.60452)"
       style="stroke-width:17.93670464;stroke-miterlimit:4;stroke-dasharray:none;stroke:#000000;stroke-opacity:1">
      <path
         transform="matrix(0.93406097,-0.35711358,0.35711358,0.93406097,-119.31109,-29.737103)"
         d="m 244.72741,314.92171 -76.18955,43.98806 -76.189551,-43.98806 0,-87.97611 76.189551,-43.98806 76.18955,43.98806 z"
         inkscape:randomized="0"
         inkscape:rounded="0"
         inkscape:flatsided="true"
         sodipodi:arg2="1.0471976"
         sodipodi:arg1="0.52359878"
         sodipodi:r2="76.189545"
         sodipodi:r1="87.976112"
         sodipodi:cy="270.93365"
         sodipodi:cx="168.53786"
         sodipodi:sides="6"
         id="path4666-1"
         style="fill:none;fill-opacity:1;stroke:#000000;stroke-width:17.93670464;stroke-linecap:round;stroke-linejoin:miter;stroke-miterlimit:4;stroke-dasharray:none;stroke-dashoffset:0;stroke-opacity:1"
         sodipodi:type="star" />
      <path
         transform="matrix(0.93406097,-0.35711358,0.35711358,0.93406097,-116.52491,-29.468368)"
         d="m 168.68128,446.90316 -76.189551,43.98805 -76.189548,-43.98805 10e-7,-87.97612 76.189548,-43.98805 76.18955,43.98805 z"
         inkscape:randomized="0"
         inkscape:rounded="0"
         inkscape:flatsided="true"
         sodipodi:arg2="1.0471976"
         sodipodi:arg1="0.52359878"
         sodipodi:r2="76.189545"
         sodipodi:r1="87.976112"
         sodipodi:cy="402.9151"
         sodipodi:cx="92.49173"
         sodipodi:sides="6"
         id="path4666-7-6"
         style="fill:none;fill-opacity:1;stroke:#000000;stroke-width:17.93670464;stroke-linecap:round;stroke-linejoin:miter;stroke-miterlimit:4;stroke-dasharray:none;stroke-dashoffset:0;stroke-opacity:1"
         sodipodi:type="star" />
      <path
         transform="matrix(0.93406097,-0.35711358,0.35711358,0.93406097,-119.06265,-29.96177)"
         d="m 320.77353,446.90316 -76.18955,43.98805 -76.18954,-43.98805 0,-87.97612 76.18954,-43.98805 76.18955,43.98805 z"
         inkscape:randomized="0"
         inkscape:rounded="0"
         inkscape:flatsided="true"
         sodipodi:arg2="1.0471976"
         sodipodi:arg1="0.52359878"
         sodipodi:r2="76.189545"
         sodipodi:r1="87.976112"
         sodipodi:cy="402.9151"
         sodipodi:cx="244.58398"
         sodipodi:sides="6"
         id="path4666-7-2-5"
         style="fill:none;fill-opacity:1;stroke:#000000;stroke-width:17.93670464;stroke-linecap:round;stroke-linejoin:miter;stroke-miterlimit:4;stroke-dasharray:none;stroke-dashoffset:0;stroke-opacity:1"
         sodipodi:type="star" />
    </g>
    <g
       transform="matrix(1.3041066,0,0,1.3041066,88.620585,198.11228)"
       style="font-style:normal;font-weight:normal;font-size:40px;line-height:125%;font-family:sans-serif;letter-spacing:0px;word-spacing:0px;fill:#000000;fill-opacity:1;stroke:none;stroke-width:1px;stroke-linecap:butt;stroke-linejoin:miter;stroke-opacity:1"
       id="flowRoot6211">
      <path
         d="m 101.15305,47.525108 c 3.56,0 6.6,-1.36 8.36,-3.12 l 0,-11.52 -9.12,0 0,3.8 4.96,0 0,5.64 c -0.84,0.76 -2.28,1.16 -3.76,1.16 -5.240003,0 -8.000003,-3.6 -8.000003,-9.56 0,-5.88 3.12,-9.48 7.760003,-9.48 2.44,0 3.96,1 5.28,2.28 l 2.48,-3 c -1.64,-1.68 -4.2,-3.32 -7.92,-3.32 -6.960003,0 -12.360003,5.08 -12.360003,13.64 0,8.68 5.24,13.48 12.320003,13.48 z"
         style="font-style:normal;font-variant:normal;font-weight:600;font-stretch:normal;font-family:'Source Sans Pro';-inkscape-font-specification:'Source Sans Pro Semi-Bold';fill:#000000;fill-opacity:1"
         id="path6220" />
      <path
         d="m 123.3493,47.525108 c 2.48,0 4.84,-0.88 6.72,-2.12 l -1.56,-2.88 c -1.44,0.92 -2.88,1.44 -4.56,1.44 -3.16,0 -5.4,-2 -5.8,-5.48 l 12.48,0 c 0.12,-0.48 0.2,-1.36 0.2,-2.24 0,-5.48 -2.8,-9.32 -8.12,-9.32 -4.6,0 -9.04,3.92 -9.04,10.32 0,6.48 4.24,10.28 9.68,10.28 z m -5.24,-12.16 c 0.4,-3.16 2.4,-4.88 4.72,-4.88 2.68,0 4,1.84 4,4.88 l -8.72,0 z"
         style="font-style:normal;font-variant:normal;font-weight:600;font-stretch:normal;font-family:'Source Sans Pro';-inkscape-font-specification:'Source Sans Pro Semi-Bold';fill:#000000;fill-opacity:1"
         id="path6222" />
      <path
         d="m 143.3018,47.525108 c 4.92,0 9.36,-3.76 9.36,-10.28 0,-6.56 -4.44,-10.32 -9.36,-10.32 -4.88,0 -9.32,3.76 -9.32,10.32 0,6.52 4.44,10.28 9.32,10.28 z m 0,-3.76 c -2.88,0 -4.6,-2.6 -4.6,-6.52 0,-3.96 1.72,-6.56 4.6,-6.56 2.88,0 4.64,2.6 4.64,6.56 0,3.92 -1.76,6.52 -4.64,6.52 z"
         style="font-style:normal;font-variant:normal;font-weight:600;font-stretch:normal;font-family:'Source Sans Pro';-inkscape-font-specification:'Source Sans Pro Semi-Bold';fill:#000000;fill-opacity:1"
         id="path6224" />
      <path
         d="m 157.85867,47.045108 4.6,0 0,-16 3.84,0 0,-3.64 -3.84,0 0,-2.12 c 0,-2.28 0.88,-3.32 2.48,-3.32 0.68,0 1.44,0.16 2.16,0.48 l 0.88,-3.44 c -0.88,-0.36 -2.2,-0.68 -3.6,-0.68 -4.64,0 -6.52,2.96 -6.52,7.04 l 0,2.04 -2.64,0.2 0,3.44 2.64,0 0,16 z"
         style="font-style:normal;font-variant:normal;font-weight:600;font-stretch:normal;font-family:'Source Sans Pro';-inkscape-font-specification:'Source Sans Pro Semi-Bold';fill:#000000;fill-opacity:1"
         id="path6226" />
      <path
         d="m 177.3643,47.525108 c 4.92,0 9.36,-3.76 9.36,-10.28 0,-6.56 -4.44,-10.32 -9.36,-10.32 -4.88,0 -9.32,3.76 -9.32,10.32 0,6.52 4.44,10.28 9.32,10.28 z m 0,-3.76 c -2.88,0 -4.6,-2.6 -4.6,-6.52 0,-3.96 1.72,-6.56 4.6,-6.56 2.88,0 4.64,2.6 4.64,6.56 0,3.92 -1.76,6.52 -4.64,6.52 z"
         style="font-style:normal;font-variant:normal;font-weight:600;font-stretch:normal;font-family:'Source Sans Pro';-inkscape-font-specification:'Source Sans Pro Semi-Bold';fill:#000000;fill-opacity:1"
         id="path6228" />
      <path
         d="m 195.75742,47.525108 c 1.08,0 1.88,-0.16 2.44,-0.4 l -0.6,-3.44 c -0.36,0.08 -0.52,0.08 -0.72,0.08 -0.48,0 -1,-0.4 -1,-1.52 l 0,-23.44 -4.6,0 0,23.2 c 0,3.4 1.2,5.52 4.48,5.52 z"
         style="font-style:normal;font-variant:normal;font-weight:600;font-stretch:normal;font-family:'Source Sans Pro';-inkscape-font-specification:'Source Sans Pro Semi-Bold';fill:#000000;fill-opacity:1"
         id="path6230" />
      <path
         d="m 202.1368,47.045108 4.6,0 0,-19.64 -4.6,0 0,19.64 z m 2.32,-23.08 c 1.64,0 2.84,-1.08 2.84,-2.6 0,-1.56 -1.2,-2.64 -2.84,-2.64 -1.64,0 -2.84,1.08 -2.84,2.64 0,1.52 1.2,2.6 2.84,2.6 z"
         style="font-style:normal;font-variant:normal;font-weight:600;font-stretch:normal;font-family:'Source Sans Pro';-inkscape-font-specification:'Source Sans Pro Semi-Bold';fill:#000000;fill-opacity:1"
         id="path6232" />
      <path
         d="m 220.64555,47.525108 c 4.92,0 9.36,-3.76 9.36,-10.28 0,-6.56 -4.44,-10.32 -9.36,-10.32 -4.88,0 -9.32,3.76 -9.32,10.32 0,6.52 4.44,10.28 9.32,10.28 z m 0,-3.76 c -2.88,0 -4.6,-2.6 -4.6,-6.52 0,-3.96 1.72,-6.56 4.6,-6.56 2.88,0 4.64,2.6 4.64,6.56 0,3.92 -1.76,6.52 -4.64,6.52 z"
         style="font-style:normal;font-variant:normal;font-weight:600;font-stretch:normal;font-family:'Source Sans Pro';-inkscape-font-specification:'Source Sans Pro Semi-Bold';fill:#000000;fill-opacity:1"
         id="path6234" />
    </g>
  </g>
</svg>
