<?xml version="1.0" encoding="UTF-8" standalone="no"?>
<!-- Created with Inkscape (http://www.inkscape.org/) -->

<svg
   xmlns:dc="http://purl.org/dc/elements/1.1/"
   xmlns:cc="http://creativecommons.org/ns#"
   xmlns:rdf="http://www.w3.org/1999/02/22-rdf-syntax-ns#"
   xmlns:svg="http://www.w3.org/2000/svg"
   xmlns="http://www.w3.org/2000/svg"
   xmlns:sodipodi="http://sodipodi.sourceforge.net/DTD/sodipodi-0.dtd"
   xmlns:inkscape="http://www.inkscape.org/namespaces/inkscape"
   width="81.948647mm"
   height="21.046286mm"
   viewBox="0 0 290.36926 74.573453"
   id="svg5523"
   version="1.1"
   inkscape:version="0.91 r13725"
   sodipodi:docname="geofolio_white_2.svg">
  <defs
     id="defs5525">
    <clipPath
       clipPathUnits="userSpaceOnUse"
       id="clipPath6146">
      <rect
         style="fill:#ffffff;fill-opacity:1;stroke:none;stroke-width:4;stroke-linecap:round;stroke-linejoin:miter;stroke-miterlimit:4;stroke-dasharray:none;stroke-dashoffset:0;stroke-opacity:1"
         id="rect6148"
         width="186.87822"
         height="59.093925"
         x="77.276665"
         y="24.570917" />
    </clipPath>
  </defs>
  <sodipodi:namedview
     id="base"
     pagecolor="#000000"
     bordercolor="#666666"
     borderopacity="1.0"
     inkscape:pageopacity="0"
     inkscape:pageshadow="2"
     inkscape:zoom="1.979899"
     inkscape:cx="126.86554"
     inkscape:cy="13.738947"
     inkscape:document-units="px"
     inkscape:current-layer="layer1"
     showgrid="false"
     fit-margin-top="0"
     fit-margin-left="0"
     fit-margin-right="0"
     fit-margin-bottom="0"
     inkscape:window-width="1875"
     inkscape:window-height="1056"
     inkscape:window-x="45"
     inkscape:window-y="24"
     inkscape:window-maximized="1" />
  <metadata
     id="metadata5528">
    <rdf:RDF>
      <cc:Work
         rdf:about="">
        <dc:format>image/svg+xml</dc:format>
        <dc:type
           rdf:resource="http://purl.org/dc/dcmitype/StillImage" />
        <dc:title></dc:title>
      </cc:Work>
    </rdf:RDF>
  </metadata>
  <g
     inkscape:label="Layer 1"
     inkscape:groupmode="layer"
     id="layer1"
     transform="translate(-115.67591,-206.50406)">
    <g
       transform="translate(102.03885,87.811116)"
       clip-path="url(#clipPath6146)"
       style="font-style:normal;font-weight:normal;font-size:27.84358597px;line-height:125%;font-family:sans-serif;letter-spacing:0px;word-spacing:0px;fill:#ffffff;fill-opacity:1;stroke:none;stroke-width:1px;stroke-linecap:butt;stroke-linejoin:miter;stroke-opacity:1"
       id="flowRoot4136">
      <path
         d="m 86.048955,67.155926 c 1.893364,1.893364 4.510661,2.784359 7.851891,2.784359 3.229856,0 5.90284,-0.946682 7.963264,-2.840046 2.06043,-1.893364 3.11848,-4.622035 3.11848,-8.186014 l 0,-9.912317 -10.914682,0 0,5.401656 4.065163,0 0,4.065163 c 0,1.726302 -0.334123,3.062795 -1.002369,3.953789 -0.668246,0.890995 -1.670615,1.336493 -3.007107,1.336493 -2.784359,0 -4.120851,-1.837677 -4.120851,-5.624405 l 0,-15.425346 c 0,-2.004739 0.278436,-3.508292 0.946682,-4.510661 0.668246,-1.00237 1.726302,-1.503554 3.174169,-1.503554 1.16943,0 2.116112,0.445497 2.895733,1.225118 0.723933,0.77962 1.113743,1.949051 1.113743,3.396917 l 0,1.169431 6.849519,0 0,-1.169431 c 0,-3.563979 -1.00237,-6.236963 -2.95142,-8.07464 -2.00473,-1.781989 -4.566345,-2.728671 -7.740514,-2.728671 -3.34123,0 -6.069901,0.946682 -8.07464,2.840046 -2.060425,1.893363 -3.062794,4.622035 -3.062794,8.241701 l 0,17.318711 c 0,3.619666 0.946682,6.348337 2.895733,8.241701 z"
         style="font-style:normal;font-variant:normal;font-weight:bold;font-stretch:condensed;font-size:55.68717194px;font-family:'D-DIN Condensed';-inkscape-font-specification:'D-DIN Condensed, Bold Condensed';fill:#ffffff;fill-opacity:1"
         id="path6151"
         inkscape:connector-curvature="0" />
      <path
         d="m 115.71629,57.076548 12.1955,0 0,-5.847153 c 0,-3.898102 -0.83531,-6.849522 -2.50593,-8.742886 -1.67061,-1.893364 -3.95379,-2.840046 -6.96089,-2.840046 -3.0628,0 -5.34597,0.946682 -6.90521,2.784359 -1.55924,1.893363 -2.28318,4.789096 -2.28318,8.798573 l 0,7.183645 c 0,4.120851 0.77962,7.072271 2.45024,8.85426 1.61493,1.78199 3.8981,2.672985 6.90521,2.672985 2.89573,0 5.1789,-0.779621 6.73815,-2.338862 1.55924,-1.55924 2.33886,-3.898102 2.33886,-7.016583 l 0,-0.334123 -6.23697,0 0,0.278436 c 0,2.505922 -0.94668,3.73104 -2.84004,3.73104 -1.94905,0 -2.89574,-1.503554 -2.89574,-4.510661 l 0,-2.672984 z m 0.72394,-10.469188 c 0.4455,-0.779621 1.16943,-1.169431 2.11611,-1.169431 0.94668,0 1.67062,0.38981 2.1718,1.169431 0.4455,0.77962 0.72393,1.949051 0.72393,3.619666 l 0,2.171799 -5.73578,0 0,-2.171799 c 0,-1.670615 0.22275,-2.840046 0.72394,-3.619666 z"
         style="font-style:normal;font-variant:normal;font-weight:bold;font-stretch:condensed;font-size:55.68717194px;font-family:'D-DIN Condensed';-inkscape-font-specification:'D-DIN Condensed, Bold Condensed';fill:#ffffff;fill-opacity:1"
         id="path6153"
         inkscape:connector-curvature="0" />
      <path
         d="m 134.49157,67.434362 c 1.55924,1.670615 3.8981,2.505923 6.9609,2.505923 3.00711,0 5.34597,-0.835308 6.90521,-2.505923 1.55924,-1.670615 2.39455,-4.3436 2.39455,-8.130327 l 0,-9.021322 c 0,-3.731041 -0.83531,-6.459712 -2.39455,-8.130327 -1.55924,-1.670615 -3.8981,-2.505923 -6.90521,-2.505923 -3.0628,0 -5.40166,0.835308 -6.9609,2.505923 -1.61493,1.670615 -2.39455,4.399286 -2.39455,8.130327 l 0,9.021322 c 0,3.786727 0.77962,6.459712 2.39455,8.130327 z m 9.07701,-4.399287 c -0.50118,0.779621 -1.22512,1.113744 -2.1718,1.113744 -0.94668,0 -1.67061,-0.334123 -2.11611,-1.113744 -0.50119,-0.77962 -0.72393,-2.004738 -0.72393,-3.675353 l 0,-9.132696 c 0,-1.670615 0.22274,-2.840046 0.72393,-3.619666 0.4455,-0.779621 1.16943,-1.169431 2.11611,-1.169431 0.94668,0 1.67062,0.38981 2.1718,1.169431 0.4455,0.77962 0.72393,1.949051 0.72393,3.619666 l 0,9.132696 c 0,1.670615 -0.27843,2.895733 -0.72393,3.675353 z"
         style="font-style:normal;font-variant:normal;font-weight:bold;font-stretch:condensed;font-size:55.68717194px;font-family:'D-DIN Condensed';-inkscape-font-specification:'D-DIN Condensed, Bold Condensed';fill:#ffffff;fill-opacity:1"
         id="path6155"
         inkscape:connector-curvature="0" />
      <path
         d="m 164.34859,36.36092 c 0.4455,-0.445497 1.28081,-0.723933 2.45024,-0.723933 l 0.83531,0 0,-4.566348 -2.78436,0 c -5.06753,0 -7.57346,2.450235 -7.57346,7.350706 l 0,1.670615 -2.95142,0 0,4.510661 2.95142,0 0,24.892166 6.40403,0 0,-24.892166 3.95379,0 0,-4.510661 -3.95379,0 0,-1.225117 c 0,-1.169431 0.22275,-2.004739 0.66824,-2.505923 z"
         style="font-style:normal;font-variant:normal;font-weight:bold;font-stretch:condensed;font-size:55.68717194px;font-family:'D-DIN Condensed';-inkscape-font-specification:'D-DIN Condensed, Bold Condensed';fill:#ffffff;fill-opacity:1"
         id="path6157"
         inkscape:connector-curvature="0" />
      <path
         d="m 173.32032,67.434362 c 1.55924,1.670615 3.8981,2.505923 6.9609,2.505923 3.00711,0 5.34597,-0.835308 6.90521,-2.505923 1.55924,-1.670615 2.39455,-4.3436 2.39455,-8.130327 l 0,-9.021322 c 0,-3.731041 -0.83531,-6.459712 -2.39455,-8.130327 -1.55924,-1.670615 -3.8981,-2.505923 -6.90521,-2.505923 -3.0628,0 -5.40166,0.835308 -6.9609,2.505923 -1.61493,1.670615 -2.39455,4.399286 -2.39455,8.130327 l 0,9.021322 c 0,3.786727 0.77962,6.459712 2.39455,8.130327 z m 9.07701,-4.399287 c -0.50118,0.779621 -1.22512,1.113744 -2.1718,1.113744 -0.94668,0 -1.67061,-0.334123 -2.11611,-1.113744 -0.50118,-0.77962 -0.72393,-2.004738 -0.72393,-3.675353 l 0,-9.132696 c 0,-1.670615 0.22275,-2.840046 0.72393,-3.619666 0.4455,-0.779621 1.16943,-1.169431 2.11611,-1.169431 0.94668,0 1.67062,0.38981 2.1718,1.169431 0.4455,0.77962 0.72394,1.949051 0.72394,3.619666 l 0,9.132696 c 0,1.670615 -0.27844,2.895733 -0.72394,3.675353 z"
         style="font-style:normal;font-variant:normal;font-weight:bold;font-stretch:condensed;font-size:55.68717194px;font-family:'D-DIN Condensed';-inkscape-font-specification:'D-DIN Condensed, Bold Condensed';fill:#ffffff;fill-opacity:1"
         id="path6159"
         inkscape:connector-curvature="0" />
      <path
         d="m 193.93327,60.362091 c 0,6.125589 3.28555,9.132696 9.96801,9.132696 l 0.33412,0 0,-5.791466 -0.27843,0 c -2.39455,0 -3.56398,-1.225117 -3.56398,-3.73104 l 0,-28.901642 -6.45972,0 0,29.291452 z"
         style="font-style:normal;font-variant:normal;font-weight:bold;font-stretch:condensed;font-size:55.68717194px;font-family:'D-DIN Condensed';-inkscape-font-specification:'D-DIN Condensed, Bold Condensed';fill:#ffffff;fill-opacity:1"
         id="path6161"
         inkscape:connector-curvature="0" />
      <path
         d="m 207.534,40.09196 0,29.402827 6.45971,0 0,-29.402827 -6.45971,0 z m 0,-9.021321 0,5.401655 6.45971,0 0,-5.401655 -6.45971,0 z"
         style="font-style:normal;font-variant:normal;font-weight:bold;font-stretch:condensed;font-size:55.68717194px;font-family:'D-DIN Condensed';-inkscape-font-specification:'D-DIN Condensed, Bold Condensed';fill:#ffffff;fill-opacity:1"
         id="path6163"
         inkscape:connector-curvature="0" />
      <path
         d="m 220.95895,67.434362 c 1.55924,1.670615 3.8981,2.505923 6.9609,2.505923 3.0071,0 5.34596,-0.835308 6.9052,-2.505923 1.55925,-1.670615 2.39455,-4.3436 2.39455,-8.130327 l 0,-9.021322 c 0,-3.731041 -0.8353,-6.459712 -2.39455,-8.130327 -1.55924,-1.670615 -3.8981,-2.505923 -6.9052,-2.505923 -3.0628,0 -5.40166,0.835308 -6.9609,2.505923 -1.61493,1.670615 -2.39455,4.399286 -2.39455,8.130327 l 0,9.021322 c 0,3.786727 0.77962,6.459712 2.39455,8.130327 z m 9.07701,-4.399287 c -0.50119,0.779621 -1.22512,1.113744 -2.1718,1.113744 -0.94668,0 -1.67062,-0.334123 -2.11611,-1.113744 -0.50119,-0.77962 -0.72394,-2.004738 -0.72394,-3.675353 l 0,-9.132696 c 0,-1.670615 0.22275,-2.840046 0.72394,-3.619666 0.44549,-0.779621 1.16943,-1.169431 2.11611,-1.169431 0.94668,0 1.67061,0.38981 2.1718,1.169431 0.4455,0.77962 0.72393,1.949051 0.72393,3.619666 l 0,9.132696 c 0,1.670615 -0.27843,2.895733 -0.72393,3.675353 z"
         style="font-style:normal;font-variant:normal;font-weight:bold;font-stretch:condensed;font-size:55.68717194px;font-family:'D-DIN Condensed';-inkscape-font-specification:'D-DIN Condensed, Bold Condensed';fill:#ffffff;fill-opacity:1"
         id="path6165"
         inkscape:connector-curvature="0" />
    </g>
    <g
       id="g12497"
       transform="matrix(0.22300641,0,0,0.22300641,111.96197,190.60452)"
       style="stroke-width:17.93670464;stroke-miterlimit:4;stroke-dasharray:none">
      <path
         transform="matrix(0.93406097,-0.35711358,0.35711358,0.93406097,-119.31109,-29.737103)"
         d="m 244.72741,314.92171 -76.18955,43.98806 -76.189551,-43.98806 0,-87.97611 76.189551,-43.98806 76.18955,43.98806 z"
         inkscape:randomized="0"
         inkscape:rounded="0"
         inkscape:flatsided="true"
         sodipodi:arg2="1.0471976"
         sodipodi:arg1="0.52359878"
         sodipodi:r2="76.189545"
         sodipodi:r1="87.976112"
         sodipodi:cy="270.93365"
         sodipodi:cx="168.53786"
         sodipodi:sides="6"
         id="path4666-1"
         style="fill:none;fill-opacity:1;stroke:#ffffff;stroke-width:17.93670464;stroke-linecap:round;stroke-linejoin:miter;stroke-miterlimit:4;stroke-dasharray:none;stroke-dashoffset:0;stroke-opacity:1"
         sodipodi:type="star" />
      <path
         transform="matrix(0.93406097,-0.35711358,0.35711358,0.93406097,-116.52491,-29.468368)"
         d="m 168.68128,446.90316 -76.189551,43.98805 -76.189548,-43.98805 10e-7,-87.97612 76.189548,-43.98805 76.18955,43.98805 z"
         inkscape:randomized="0"
         inkscape:rounded="0"
         inkscape:flatsided="true"
         sodipodi:arg2="1.0471976"
         sodipodi:arg1="0.52359878"
         sodipodi:r2="76.189545"
         sodipodi:r1="87.976112"
         sodipodi:cy="402.9151"
         sodipodi:cx="92.49173"
         sodipodi:sides="6"
         id="path4666-7-6"
         style="fill:none;fill-opacity:1;stroke:#ffffff;stroke-width:17.93670464;stroke-linecap:round;stroke-linejoin:miter;stroke-miterlimit:4;stroke-dasharray:none;stroke-dashoffset:0;stroke-opacity:1"
         sodipodi:type="star" />
      <path
         transform="matrix(0.93406097,-0.35711358,0.35711358,0.93406097,-119.06265,-29.96177)"
         d="m 320.77353,446.90316 -76.18955,43.98805 -76.18954,-43.98805 0,-87.97612 76.18954,-43.98805 76.18955,43.98805 z"
         inkscape:randomized="0"
         inkscape:rounded="0"
         inkscape:flatsided="true"
         sodipodi:arg2="1.0471976"
         sodipodi:arg1="0.52359878"
         sodipodi:r2="76.189545"
         sodipodi:r1="87.976112"
         sodipodi:cy="402.9151"
         sodipodi:cx="244.58398"
         sodipodi:sides="6"
         id="path4666-7-2-5"
         style="fill:none;fill-opacity:1;stroke:#ffffff;stroke-width:17.93670464;stroke-linecap:round;stroke-linejoin:miter;stroke-miterlimit:4;stroke-dasharray:none;stroke-dashoffset:0;stroke-opacity:1"
         sodipodi:type="star" />
    </g>
    <g
       transform="translate(-47.968823,103.97356)"
       style="font-style:normal;font-weight:normal;font-size:40px;line-height:125%;font-family:sans-serif;letter-spacing:0px;word-spacing:0px;fill:#000000;fill-opacity:1;stroke:none;stroke-width:1px;stroke-linecap:butt;stroke-linejoin:miter;stroke-opacity:1"
       id="flowRoot6186">
      <path
         d="m 86.828126,56.15428 c 1.7,1.7 4.05,2.5 7.050001,2.5 2.9,0 5.300001,-0.85 7.150003,-2.55 1.85,-1.7 2.8,-4.150001 2.8,-7.350001 l 0,-8.900001 -9.800003,0 0,4.85 3.65,0 0,3.650001 c 0,1.55 -0.3,2.75 -0.9,3.55 -0.6,0.800001 -1.5,1.200001 -2.7,1.200001 -2.500001,0 -3.700001,-1.650001 -3.700001,-5.050001 l 0,-13.850002 c 0,-1.800001 0.25,-3.150001 0.85,-4.050001 0.6,-0.9 1.550001,-1.35 2.850001,-1.35 1.05,0 1.9,0.4 2.6,1.1 0.65,0.7 1,1.75 1,3.050001 l 0,1.05 6.150003,0 0,-1.05 c 0,-3.200001 -0.9,-5.600001 -2.65,-7.250002 -1.800002,-1.6 -4.100003,-2.45 -6.950003,-2.45 -3.000001,0 -5.450001,0.85 -7.250001,2.55 -1.850001,1.700001 -2.750001,4.150001 -2.750001,7.400002 l 0,15.550002 c 0,3.25 0.85,5.700001 2.600001,7.400001 z"
         style="font-style:normal;font-variant:normal;font-weight:bold;font-stretch:condensed;font-size:50.00000763px;line-height:125%;font-family:'D-DIN Condensed';-inkscape-font-specification:'D-DIN Condensed, Bold Condensed';fill:#ffffff;fill-opacity:1"
         id="path6195"
         inkscape:connector-curvature="0" />
      <path
         d="m 113.46563,47.104279 10.95,0 0,-5.250001 c 0,-3.500001 -0.75,-6.150001 -2.25,-7.850001 -1.5,-1.700001 -3.55,-2.550001 -6.25,-2.550001 -2.75,0 -4.8,0.85 -6.2,2.500001 -1.4,1.7 -2.05,4.3 -2.05,7.900001 l 0,6.450001 c 0,3.7 0.7,6.350001 2.2,7.950001 1.45,1.6 3.5,2.4 6.2,2.4 2.6,0 4.65,-0.7 6.05,-2.1 1.4,-1.4 2.1,-3.5 2.1,-6.300001 l 0,-0.3 -5.6,0 0,0.25 c 0,2.250001 -0.85,3.350001 -2.55,3.350001 -1.75,0 -2.6,-1.35 -2.6,-4.050001 l 0,-2.4 z m 0.65,-9.400002 c 0.4,-0.7 1.05,-1.05 1.9,-1.05 0.85,0 1.5,0.35 1.95,1.05 0.4,0.7 0.65,1.750001 0.65,3.250001 l 0,1.95 -5.15,0 0,-1.95 c 0,-1.5 0.2,-2.550001 0.65,-3.250001 z"
         style="font-style:normal;font-variant:normal;font-weight:bold;font-stretch:condensed;font-size:50.00000763px;line-height:125%;font-family:'D-DIN Condensed';-inkscape-font-specification:'D-DIN Condensed, Bold Condensed';fill:#ffffff;fill-opacity:1"
         id="path6197"
         inkscape:connector-curvature="0" />
      <path
         d="m 130.32345,56.40428 c 1.4,1.5 3.5,2.25 6.25,2.25 2.7,0 4.8,-0.75 6.2,-2.25 1.4,-1.5 2.15,-3.9 2.15,-7.300001 l 0,-8.100001 c 0,-3.350001 -0.75,-5.800001 -2.15,-7.300001 -1.4,-1.500001 -3.5,-2.250001 -6.2,-2.250001 -2.75,0 -4.85,0.75 -6.25,2.250001 -1.45,1.5 -2.15,3.95 -2.15,7.300001 l 0,8.100001 c 0,3.400001 0.7,5.800001 2.15,7.300001 z m 8.15,-3.95 c -0.45,0.7 -1.1,1 -1.95,1 -0.85,0 -1.5,-0.3 -1.9,-1 -0.45,-0.700001 -0.65,-1.800001 -0.65,-3.300001 l 0,-8.200001 c 0,-1.5 0.2,-2.550001 0.65,-3.250001 0.4,-0.7 1.05,-1.05 1.9,-1.05 0.85,0 1.5,0.35 1.95,1.05 0.4,0.7 0.65,1.750001 0.65,3.250001 l 0,8.200001 c 0,1.5 -0.25,2.6 -0.65,3.300001 z"
         style="font-style:normal;font-variant:normal;font-weight:bold;font-stretch:condensed;font-size:50.00000763px;line-height:125%;font-family:'D-DIN Condensed';-inkscape-font-specification:'D-DIN Condensed, Bold Condensed';fill:#ffffff;fill-opacity:1"
         id="path6199"
         inkscape:connector-curvature="0" />
      <path
         d="m 157.13127,28.504276 c 0.4,-0.4 1.15,-0.65 2.2,-0.65 l 0.75,0 0,-4.100001 -2.5,0 c -4.55,0 -6.8,2.200001 -6.8,6.600001 l 0,1.5 -2.65,0 0,4.050001 2.65,0 0,22.350003 5.75,0 0,-22.350003 3.55,0 0,-4.050001 -3.55,0 0,-1.1 c 0,-1.05 0.2,-1.8 0.6,-2.25 z"
         style="font-style:normal;font-variant:normal;font-weight:bold;font-stretch:condensed;font-size:50.00000763px;line-height:125%;font-family:'D-DIN Condensed';-inkscape-font-specification:'D-DIN Condensed, Bold Condensed';fill:#ffffff;fill-opacity:1"
         id="path6201"
         inkscape:connector-curvature="0" />
      <path
         d="m 165.18673,56.40428 c 1.4,1.5 3.50001,2.25 6.25001,2.25 2.7,0 4.8,-0.75 6.2,-2.25 1.4,-1.5 2.15,-3.9 2.15,-7.300001 l 0,-8.100001 c 0,-3.350001 -0.75,-5.800001 -2.15,-7.300001 -1.4,-1.500001 -3.5,-2.250001 -6.2,-2.250001 -2.75,0 -4.85001,0.75 -6.25001,2.250001 -1.45,1.5 -2.15,3.95 -2.15,7.300001 l 0,8.100001 c 0,3.400001 0.7,5.800001 2.15,7.300001 z m 8.15001,-3.95 c -0.45,0.7 -1.1,1 -1.95,1 -0.85,0 -1.5,-0.3 -1.9,-1 -0.45,-0.700001 -0.65,-1.800001 -0.65,-3.300001 l 0,-8.200001 c 0,-1.5 0.2,-2.550001 0.65,-3.250001 0.4,-0.7 1.05,-1.05 1.9,-1.05 0.85,0 1.5,0.35 1.95,1.05 0.4,0.7 0.65,1.750001 0.65,3.250001 l 0,8.200001 c 0,1.5 -0.25,2.6 -0.65,3.300001 z"
         style="font-style:normal;font-variant:normal;font-weight:bold;font-stretch:condensed;font-size:50.00000763px;line-height:125%;font-family:'D-DIN Condensed';-inkscape-font-specification:'D-DIN Condensed, Bold Condensed';fill:#ffffff;fill-opacity:1"
         id="path6203"
         inkscape:connector-curvature="0" />
      <path
         d="m 183.69455,50.054279 c 0,5.500001 2.95,8.200001 8.95,8.200001 l 0.3,0 0,-5.2 -0.25,0 c -2.15,0 -3.2,-1.100001 -3.2,-3.350001 l 0,-25.950004 -5.8,0 0,26.300004 z"
         style="font-style:normal;font-variant:normal;font-weight:bold;font-stretch:condensed;font-size:50.00000763px;line-height:125%;font-family:'D-DIN Condensed';-inkscape-font-specification:'D-DIN Condensed, Bold Condensed';fill:#ffffff;fill-opacity:1"
         id="path6205"
         inkscape:connector-curvature="0" />
      <path
         d="m 195.90627,31.854276 0,26.400004 5.8,0 0,-26.400004 -5.8,0 z m 0,-8.100001 0,4.850001 5.8,0 0,-4.850001 -5.8,0 z"
         style="font-style:normal;font-variant:normal;font-weight:bold;font-stretch:condensed;font-size:50.00000763px;line-height:125%;font-family:'D-DIN Condensed';-inkscape-font-specification:'D-DIN Condensed, Bold Condensed';fill:#ffffff;fill-opacity:1"
         id="path6207"
         inkscape:connector-curvature="0" />
      <path
         d="m 207.96018,56.40428 c 1.4,1.5 3.5,2.25 6.25,2.25 2.7,0 4.8,-0.75 6.2,-2.25 1.4,-1.5 2.15,-3.9 2.15,-7.300001 l 0,-8.100001 c 0,-3.350001 -0.75,-5.800001 -2.15,-7.300001 -1.4,-1.500001 -3.5,-2.250001 -6.2,-2.250001 -2.75,0 -4.85,0.75 -6.25,2.250001 -1.45,1.5 -2.15,3.95 -2.15,7.300001 l 0,8.100001 c 0,3.400001 0.7,5.800001 2.15,7.300001 z m 8.15,-3.95 c -0.45,0.7 -1.1,1 -1.95,1 -0.85,0 -1.5,-0.3 -1.9,-1 -0.45,-0.700001 -0.65,-1.800001 -0.65,-3.300001 l 0,-8.200001 c 0,-1.5 0.2,-2.550001 0.65,-3.250001 0.4,-0.7 1.05,-1.05 1.9,-1.05 0.85,0 1.5,0.35 1.95,1.05 0.4,0.7 0.65,1.750001 0.65,3.250001 l 0,8.200001 c 0,1.5 -0.25,2.6 -0.65,3.300001 z"
         style="font-style:normal;font-variant:normal;font-weight:bold;font-stretch:condensed;font-size:50.00000763px;line-height:125%;font-family:'D-DIN Condensed';-inkscape-font-specification:'D-DIN Condensed, Bold Condensed';fill:#ffffff;fill-opacity:1"
         id="path6209"
         inkscape:connector-curvature="0" />
    </g>
    <g
       transform="matrix(1.3041066,0,0,1.3041066,88.620585,198.11228)"
       style="font-style:normal;font-weight:normal;font-size:40px;line-height:125%;font-family:sans-serif;letter-spacing:0px;word-spacing:0px;fill:#000000;fill-opacity:1;stroke:none;stroke-width:1px;stroke-linecap:butt;stroke-linejoin:miter;stroke-opacity:1"
       id="flowRoot6211">
      <path
         d="m 101.15305,47.525108 c 3.56,0 6.6,-1.36 8.36,-3.12 l 0,-11.52 -9.12,0 0,3.8 4.96,0 0,5.64 c -0.84,0.76 -2.28,1.16 -3.76,1.16 -5.240003,0 -8.000003,-3.6 -8.000003,-9.56 0,-5.88 3.12,-9.48 7.760003,-9.48 2.44,0 3.96,1 5.28,2.28 l 2.48,-3 c -1.64,-1.68 -4.2,-3.32 -7.92,-3.32 -6.960003,0 -12.360003,5.08 -12.360003,13.64 0,8.68 5.24,13.48 12.320003,13.48 z"
         style="font-style:normal;font-variant:normal;font-weight:600;font-stretch:normal;font-family:'Source Sans Pro';-inkscape-font-specification:'Source Sans Pro Semi-Bold';fill:#ffffff;fill-opacity:1"
         id="path6220" />
      <path
         d="m 123.3493,47.525108 c 2.48,0 4.84,-0.88 6.72,-2.12 l -1.56,-2.88 c -1.44,0.92 -2.88,1.44 -4.56,1.44 -3.16,0 -5.4,-2 -5.8,-5.48 l 12.48,0 c 0.12,-0.48 0.2,-1.36 0.2,-2.24 0,-5.48 -2.8,-9.32 -8.12,-9.32 -4.6,0 -9.04,3.92 -9.04,10.32 0,6.48 4.24,10.28 9.68,10.28 z m -5.24,-12.16 c 0.4,-3.16 2.4,-4.88 4.72,-4.88 2.68,0 4,1.84 4,4.88 l -8.72,0 z"
         style="font-style:normal;font-variant:normal;font-weight:600;font-stretch:normal;font-family:'Source Sans Pro';-inkscape-font-specification:'Source Sans Pro Semi-Bold';fill:#ffffff;fill-opacity:1"
         id="path6222" />
      <path
         d="m 143.3018,47.525108 c 4.92,0 9.36,-3.76 9.36,-10.28 0,-6.56 -4.44,-10.32 -9.36,-10.32 -4.88,0 -9.32,3.76 -9.32,10.32 0,6.52 4.44,10.28 9.32,10.28 z m 0,-3.76 c -2.88,0 -4.6,-2.6 -4.6,-6.52 0,-3.96 1.72,-6.56 4.6,-6.56 2.88,0 4.64,2.6 4.64,6.56 0,3.92 -1.76,6.52 -4.64,6.52 z"
         style="font-style:normal;font-variant:normal;font-weight:600;font-stretch:normal;font-family:'Source Sans Pro';-inkscape-font-specification:'Source Sans Pro Semi-Bold';fill:#ffffff;fill-opacity:1"
         id="path6224" />
      <path
         d="m 157.85867,47.045108 4.6,0 0,-16 3.84,0 0,-3.64 -3.84,0 0,-2.12 c 0,-2.28 0.88,-3.32 2.48,-3.32 0.68,0 1.44,0.16 2.16,0.48 l 0.88,-3.44 c -0.88,-0.36 -2.2,-0.68 -3.6,-0.68 -4.64,0 -6.52,2.96 -6.52,7.04 l 0,2.04 -2.64,0.2 0,3.44 2.64,0 0,16 z"
         style="font-style:normal;font-variant:normal;font-weight:600;font-stretch:normal;font-family:'Source Sans Pro';-inkscape-font-specification:'Source Sans Pro Semi-Bold';fill:#ffffff;fill-opacity:1"
         id="path6226" />
      <path
         d="m 177.3643,47.525108 c 4.92,0 9.36,-3.76 9.36,-10.28 0,-6.56 -4.44,-10.32 -9.36,-10.32 -4.88,0 -9.32,3.76 -9.32,10.32 0,6.52 4.44,10.28 9.32,10.28 z m 0,-3.76 c -2.88,0 -4.6,-2.6 -4.6,-6.52 0,-3.96 1.72,-6.56 4.6,-6.56 2.88,0 4.64,2.6 4.64,6.56 0,3.92 -1.76,6.52 -4.64,6.52 z"
         style="font-style:normal;font-variant:normal;font-weight:600;font-stretch:normal;font-family:'Source Sans Pro';-inkscape-font-specification:'Source Sans Pro Semi-Bold';fill:#ffffff;fill-opacity:1"
         id="path6228" />
      <path
         d="m 195.75742,47.525108 c 1.08,0 1.88,-0.16 2.44,-0.4 l -0.6,-3.44 c -0.36,0.08 -0.52,0.08 -0.72,0.08 -0.48,0 -1,-0.4 -1,-1.52 l 0,-23.44 -4.6,0 0,23.2 c 0,3.4 1.2,5.52 4.48,5.52 z"
         style="font-style:normal;font-variant:normal;font-weight:600;font-stretch:normal;font-family:'Source Sans Pro';-inkscape-font-specification:'Source Sans Pro Semi-Bold';fill:#ffffff;fill-opacity:1"
         id="path6230" />
      <path
         d="m 202.1368,47.045108 4.6,0 0,-19.64 -4.6,0 0,19.64 z m 2.32,-23.08 c 1.64,0 2.84,-1.08 2.84,-2.6 0,-1.56 -1.2,-2.64 -2.84,-2.64 -1.64,0 -2.84,1.08 -2.84,2.64 0,1.52 1.2,2.6 2.84,2.6 z"
         style="font-style:normal;font-variant:normal;font-weight:600;font-stretch:normal;font-family:'Source Sans Pro';-inkscape-font-specification:'Source Sans Pro Semi-Bold';fill:#ffffff;fill-opacity:1"
         id="path6232" />
      <path
         d="m 220.64555,47.525108 c 4.92,0 9.36,-3.76 9.36,-10.28 0,-6.56 -4.44,-10.32 -9.36,-10.32 -4.88,0 -9.32,3.76 -9.32,10.32 0,6.52 4.44,10.28 9.32,10.28 z m 0,-3.76 c -2.88,0 -4.6,-2.6 -4.6,-6.52 0,-3.96 1.72,-6.56 4.6,-6.56 2.88,0 4.64,2.6 4.64,6.56 0,3.92 -1.76,6.52 -4.64,6.52 z"
         style="font-style:normal;font-variant:normal;font-weight:600;font-stretch:normal;font-family:'Source Sans Pro';-inkscape-font-specification:'Source Sans Pro Semi-Bold';fill:#ffffff;fill-opacity:1"
         id="path6234" />
    </g>
  </g>
</svg>
