<?xml version="1.0" encoding="UTF-8" standalone="no"?>
<!-- Created with Inkscape (http://www.inkscape.org/) -->

<svg
   xmlns:dc="http://purl.org/dc/elements/1.1/"
   xmlns:cc="http://creativecommons.org/ns#"
   xmlns:rdf="http://www.w3.org/1999/02/22-rdf-syntax-ns#"
   xmlns:svg="http://www.w3.org/2000/svg"
   xmlns="http://www.w3.org/2000/svg"
   xmlns:sodipodi="http://sodipodi.sourceforge.net/DTD/sodipodi-0.dtd"
   xmlns:inkscape="http://www.inkscape.org/namespaces/inkscape"
   width="100.495mm"
   height="60.439999mm"
   viewBox="0 0 356.08466 214.15747"
   id="svg9035"
   version="1.1"
   inkscape:version="0.91 r13725">
  <defs
     id="defs9037" />
  <sodipodi:namedview
     id="base"
     pagecolor="#ffffff"
     bordercolor="#666666"
     borderopacity="1.0"
     inkscape:pageopacity="0.0"
     inkscape:pageshadow="2"
     inkscape:zoom="0.35"
     inkscape:cx="264.47089"
     inkscape:cy="47.078732"
     inkscape:document-units="px"
     inkscape:current-layer="layer1"
     showgrid="false"
     fit-margin-top="0"
     fit-margin-left="0"
     fit-margin-right="0"
     fit-margin-bottom="0"
     inkscape:window-width="1875"
     inkscape:window-height="1056"
     inkscape:window-x="45"
     inkscape:window-y="24"
     inkscape:window-maximized="1" />
  <metadata
     id="metadata9040">
    <rdf:RDF>
      <cc:Work
         rdf:about="">
        <dc:format>image/svg+xml</dc:format>
        <dc:type
           rdf:resource="http://purl.org/dc/dcmitype/StillImage" />
        <dc:title></dc:title>
      </cc:Work>
    </rdf:RDF>
  </metadata>
  <g
     inkscape:label="Layer 1"
     inkscape:groupmode="layer"
     id="layer1"
     transform="translate(-110.52911,-365.28346)">
    <g
       id="g7310"
       class="com.sun.star.drawing.PolyPolygonShape"
       transform="matrix(0.03543307,0,0,0.03543307,39.485802,100.79332)">
      <g
         id="id3"
         transform="matrix(0.85654885,0,0,0.74080375,2340.0001,626.33599)">
        <rect
           style="fill:none;stroke:none"
           id="rect7313"
           height="7639"
           width="7215"
           y="9361"
           x="0"
           class="BoundingBox" />
        <path
           style="fill:#eeeeee;stroke:none"
           inkscape:connector-curvature="0"
           id="path7315"
           d="m 0,9361 424,557 1049,186 374,583 375,-53 598,80 350,450 599,319 774,53 773,-307 450,201 175,663 499,317 299,80 450,451 25,557 -824,0 -449,-212 -250,398 -449,52 -275,214 -349,403 -550,25 -224,446 -25,371 -75,357 225,200 174,296 -449,278 -324,-278 -425,-84 -150,399 -823,264 -674,0 -549,186 -749,186 0,-7638 z" />
      </g>
      <g
         id="id3-9"
         transform="matrix(0,0.75051962,-0.86745645,0,20174.76,7762.5008)">
        <rect
           style="fill:none;stroke:none"
           id="rect7313-2"
           height="7639"
           width="7215"
           y="9361"
           x="0"
           class="BoundingBox" />
        <path
           style="fill:#eeeeee;stroke:none"
           inkscape:connector-curvature="0"
           id="path7315-7"
           d="m 0,9361 424,557 1049,186 374,583 375,-53 598,80 350,450 599,319 774,53 773,-307 450,201 175,663 499,317 299,80 450,451 25,557 -824,0 -449,-212 -250,398 -449,52 -275,214 -349,403 -550,25 -224,446 -25,371 -75,357 225,200 174,296 -449,278 -324,-278 -425,-84 -150,399 -823,264 -674,0 -549,186 -749,186 0,-7638 z" />
      </g>
    </g>
    <g
       id="g8095"
       class="Group"
       transform="matrix(0.03543307,0,0,0.03543307,22.743676,103.18505)">
      <g
         id="g8097"
         class="Group">
        <g
           id="g8099"
           class="com.sun.star.drawing.PolyPolygonShape">
          <g
             id="id94">
            <rect
               style="fill:none;stroke:none"
               id="rect8102"
               height="2336"
               width="4069"
               y="9285"
               x="5128"
               class="BoundingBox" />
            <path
               style="fill:#b2b2b2;stroke:none"
               inkscape:connector-curvature="0"
               id="path8104"
               d="m 8985,10230 -626,-611 -958,-205 -979,230 -506,-358 -625,155 -162,543 725,405 277,599 314,-73 232,-271 663,-26 463,357 581,644 583,-218 229,-174 -211,-997 z" />
          </g>
        </g>
        <g
           id="g8106"
           class="com.sun.star.drawing.PolyPolygonShape">
          <g
             id="id95">
            <rect
               style="fill:none;stroke:none"
               id="rect8109"
               height="2242"
               width="2889"
               y="9690"
               x="7546"
               class="BoundingBox" />
            <path
               style="fill:#b2b2b2;stroke:none"
               inkscape:connector-curvature="0"
               id="path8111"
               d="m 7711,11101 451,588 678,168 686,-267 364,340 437,-179 107,-548 -520,-378 -204,-588 -220,85 -159,280 -466,50 -333,-339 -420,-622 -408,240 -158,183 165,987 z" />
          </g>
        </g>
      </g>
      <g
         id="g8113"
         class="com.sun.star.drawing.PolyPolygonShape">
        <g
           id="id96">
          <rect
             style="fill:none;stroke:none"
             id="rect8116"
             height="1337"
             width="842"
             y="9373"
             x="3694"
             class="BoundingBox" />
          <path
             style="fill:#b2b2b2;stroke:none"
             inkscape:connector-curvature="0"
             id="path8118"
             d="m 3780,9686 -86,461 280,223 169,292 391,47 -129,-397 -205,-328 86,-463 -175,-147 -331,312 z" />
        </g>
      </g>
    </g>
    <g
       transform="matrix(0.03543307,0,0,0.03543307,36.296825,99.996067)"
       id="g8153"
       class="Group">
      <g
         id="g8155"
         class="com.sun.star.drawing.CustomShape">
        <g
           id="id100">
          <rect
             style="fill:none;stroke:none"
             id="rect8158"
             height="5570"
             width="9463"
             y="7735"
             x="2345"
             class="BoundingBox" />
          <path
             style="fill:none;stroke:#ff6600;stroke-width:152;stroke-linejoin:round"
             inkscape:connector-curvature="0"
             id="path8160"
             d="m 7076,13228 -299,0" />
          <path
             style="fill:none;stroke:#ff6600;stroke-width:152;stroke-linejoin:round"
             inkscape:connector-curvature="0"
             id="path8162"
             d="m 6584,13228 -300,0" />
          <path
             style="fill:none;stroke:#ff6600;stroke-width:152;stroke-linejoin:round"
             inkscape:connector-curvature="0"
             id="path8164"
             d="m 6091,13228 -299,0" />
          <path
             style="fill:none;stroke:#ff6600;stroke-width:152;stroke-linejoin:round"
             inkscape:connector-curvature="0"
             id="path8166"
             d="m 5599,13228 -300,0" />
          <path
             style="fill:none;stroke:#ff6600;stroke-width:152;stroke-linejoin:round"
             inkscape:connector-curvature="0"
             id="path8168"
             d="m 5106,13228 -299,0" />
          <path
             style="fill:none;stroke:#ff6600;stroke-width:152;stroke-linejoin:round"
             inkscape:connector-curvature="0"
             id="path8170"
             d="m 4614,13228 -300,0" />
          <path
             style="fill:none;stroke:#ff6600;stroke-width:152;stroke-linejoin:round"
             inkscape:connector-curvature="0"
             id="path8172"
             d="m 4121,13228 -299,0" />
          <path
             style="fill:none;stroke:#ff6600;stroke-width:152;stroke-linejoin:round"
             inkscape:connector-curvature="0"
             id="path8174"
             d="m 3629,13228 -300,0" />
          <path
             style="fill:none;stroke:#ff6600;stroke-width:152;stroke-linejoin:round"
             inkscape:connector-curvature="0"
             id="path8176"
             d="m 3136,13228 -299,0" />
          <path
             style="fill:none;stroke:#ff6600;stroke-width:152;stroke-linejoin:round"
             inkscape:connector-curvature="0"
             id="path8178"
             d="m 2644,13228 -223,0 0,-77" />
          <path
             style="fill:none;stroke:#ff6600;stroke-width:152;stroke-linejoin:round"
             inkscape:connector-curvature="0"
             id="path8180"
             d="m 2421,12958 0,-299" />
          <path
             style="fill:none;stroke:#ff6600;stroke-width:152;stroke-linejoin:round"
             inkscape:connector-curvature="0"
             id="path8182"
             d="m 2421,12466 0,-300" />
          <path
             style="fill:none;stroke:#ff6600;stroke-width:152;stroke-linejoin:round"
             inkscape:connector-curvature="0"
             id="path8184"
             d="m 2421,11973 0,-299" />
          <path
             style="fill:none;stroke:#ff6600;stroke-width:152;stroke-linejoin:round"
             inkscape:connector-curvature="0"
             id="path8186"
             d="m 2421,11481 0,-300" />
          <path
             style="fill:none;stroke:#ff6600;stroke-width:152;stroke-linejoin:round"
             inkscape:connector-curvature="0"
             id="path8188"
             d="m 2421,10988 0,-299" />
          <path
             style="fill:none;stroke:#ff6600;stroke-width:152;stroke-linejoin:round"
             inkscape:connector-curvature="0"
             id="path8190"
             d="m 2421,10496 0,-300" />
          <path
             style="fill:none;stroke:#ff6600;stroke-width:152;stroke-linejoin:round"
             inkscape:connector-curvature="0"
             id="path8192"
             d="m 2421,10003 0,-299" />
          <path
             style="fill:none;stroke:#ff6600;stroke-width:152;stroke-linejoin:round"
             inkscape:connector-curvature="0"
             id="path8194"
             d="m 2421,9511 0,-300" />
          <path
             style="fill:none;stroke:#ff6600;stroke-width:152;stroke-linejoin:round"
             inkscape:connector-curvature="0"
             id="path8196"
             d="m 2421,9018 0,-299" />
          <path
             style="fill:none;stroke:#ff6600;stroke-width:152;stroke-linejoin:round"
             inkscape:connector-curvature="0"
             id="path8198"
             d="m 2421,8526 0,-300" />
          <path
             style="fill:none;stroke:#ff6600;stroke-width:152;stroke-linejoin:round"
             inkscape:connector-curvature="0"
             id="path8200"
             d="m 2421,8033 0,-222 77,0" />
          <path
             style="fill:none;stroke:#ff6600;stroke-width:152;stroke-linejoin:round"
             inkscape:connector-curvature="0"
             id="path8202"
             d="m 2691,7811 300,0" />
          <path
             style="fill:none;stroke:#ff6600;stroke-width:152;stroke-linejoin:round"
             inkscape:connector-curvature="0"
             id="path8204"
             d="m 3184,7811 299,0" />
          <path
             style="fill:none;stroke:#ff6600;stroke-width:152;stroke-linejoin:round"
             inkscape:connector-curvature="0"
             id="path8206"
             d="m 3676,7811 299,0" />
          <path
             style="fill:none;stroke:#ff6600;stroke-width:152;stroke-linejoin:round"
             inkscape:connector-curvature="0"
             id="path8208"
             d="m 4169,7811 299,0" />
          <path
             style="fill:none;stroke:#ff6600;stroke-width:152;stroke-linejoin:round"
             inkscape:connector-curvature="0"
             id="path8210"
             d="m 4661,7811 299,0" />
          <path
             style="fill:none;stroke:#ff6600;stroke-width:152;stroke-linejoin:round"
             inkscape:connector-curvature="0"
             id="path8212"
             d="m 5153,7811 300,0" />
          <path
             style="fill:none;stroke:#ff6600;stroke-width:152;stroke-linejoin:round"
             inkscape:connector-curvature="0"
             id="path8214"
             d="m 5646,7811 299,0" />
          <path
             style="fill:none;stroke:#ff6600;stroke-width:152;stroke-linejoin:round"
             inkscape:connector-curvature="0"
             id="path8216"
             d="m 6138,7811 300,0" />
          <path
             style="fill:none;stroke:#ff6600;stroke-width:152;stroke-linejoin:round"
             inkscape:connector-curvature="0"
             id="path8218"
             d="m 6631,7811 299,0" />
          <path
             style="fill:none;stroke:#ff6600;stroke-width:152;stroke-linejoin:round"
             inkscape:connector-curvature="0"
             id="path8220"
             d="m 7123,7811 300,0" />
          <path
             style="fill:none;stroke:#ff6600;stroke-width:152;stroke-linejoin:round"
             inkscape:connector-curvature="0"
             id="path8222"
             d="m 7616,7811 299,0" />
          <path
             style="fill:none;stroke:#ff6600;stroke-width:152;stroke-linejoin:round"
             inkscape:connector-curvature="0"
             id="path8224"
             d="m 8108,7811 300,0" />
          <path
             style="fill:none;stroke:#ff6600;stroke-width:152;stroke-linejoin:round"
             inkscape:connector-curvature="0"
             id="path8226"
             d="m 8601,7811 299,0" />
          <path
             style="fill:none;stroke:#ff6600;stroke-width:152;stroke-linejoin:round"
             inkscape:connector-curvature="0"
             id="path8228"
             d="m 9093,7811 300,0" />
          <path
             style="fill:none;stroke:#ff6600;stroke-width:152;stroke-linejoin:round"
             inkscape:connector-curvature="0"
             id="path8230"
             d="m 9586,7811 299,0" />
          <path
             style="fill:none;stroke:#ff6600;stroke-width:152;stroke-linejoin:round"
             inkscape:connector-curvature="0"
             id="path8232"
             d="m 10078,7811 300,0" />
          <path
             style="fill:none;stroke:#ff6600;stroke-width:152;stroke-linejoin:round"
             inkscape:connector-curvature="0"
             id="path8234"
             d="m 10571,7811 299,0" />
          <path
             style="fill:none;stroke:#ff6600;stroke-width:152;stroke-linejoin:round"
             inkscape:connector-curvature="0"
             id="path8236"
             d="m 11063,7811 300,0" />
          <path
             style="fill:none;stroke:#ff6600;stroke-width:152;stroke-linejoin:round"
             inkscape:connector-curvature="0"
             id="path8238"
             d="m 11556,7811 175,0 0,124" />
          <path
             style="fill:none;stroke:#ff6600;stroke-width:152;stroke-linejoin:round"
             inkscape:connector-curvature="0"
             id="path8240"
             d="m 11731,8128 0,300" />
          <path
             style="fill:none;stroke:#ff6600;stroke-width:152;stroke-linejoin:round"
             inkscape:connector-curvature="0"
             id="path8242"
             d="m 11731,8621 0,299" />
          <path
             style="fill:none;stroke:#ff6600;stroke-width:152;stroke-linejoin:round"
             inkscape:connector-curvature="0"
             id="path8244"
             d="m 11731,9113 0,300" />
          <path
             style="fill:none;stroke:#ff6600;stroke-width:152;stroke-linejoin:round"
             inkscape:connector-curvature="0"
             id="path8246"
             d="m 11731,9606 0,299" />
          <path
             style="fill:none;stroke:#ff6600;stroke-width:152;stroke-linejoin:round"
             inkscape:connector-curvature="0"
             id="path8248"
             d="m 11731,10098 0,300" />
          <path
             style="fill:none;stroke:#ff6600;stroke-width:152;stroke-linejoin:round"
             inkscape:connector-curvature="0"
             id="path8250"
             d="m 11731,10591 0,299" />
          <path
             style="fill:none;stroke:#ff6600;stroke-width:152;stroke-linejoin:round"
             inkscape:connector-curvature="0"
             id="path8252"
             d="m 11731,11083 0,300" />
          <path
             style="fill:none;stroke:#ff6600;stroke-width:152;stroke-linejoin:round"
             inkscape:connector-curvature="0"
             id="path8254"
             d="m 11731,11576 0,299" />
          <path
             style="fill:none;stroke:#ff6600;stroke-width:152;stroke-linejoin:round"
             inkscape:connector-curvature="0"
             id="path8256"
             d="m 11731,12068 0,299" />
          <path
             style="fill:none;stroke:#ff6600;stroke-width:152;stroke-linejoin:round"
             inkscape:connector-curvature="0"
             id="path8258"
             d="m 11731,12561 0,299" />
          <path
             style="fill:none;stroke:#ff6600;stroke-width:152;stroke-linejoin:round"
             inkscape:connector-curvature="0"
             id="path8260"
             d="m 11731,13053 0,175 -124,0" />
          <path
             style="fill:none;stroke:#ff6600;stroke-width:152;stroke-linejoin:round"
             inkscape:connector-curvature="0"
             id="path8262"
             d="m 11414,13228 -300,0" />
          <path
             style="fill:none;stroke:#ff6600;stroke-width:152;stroke-linejoin:round"
             inkscape:connector-curvature="0"
             id="path8264"
             d="m 10921,13228 -299,0" />
          <path
             style="fill:none;stroke:#ff6600;stroke-width:152;stroke-linejoin:round"
             inkscape:connector-curvature="0"
             id="path8266"
             d="m 10429,13228 -300,0" />
          <path
             style="fill:none;stroke:#ff6600;stroke-width:152;stroke-linejoin:round"
             inkscape:connector-curvature="0"
             id="path8268"
             d="m 9936,13228 -299,0" />
          <path
             style="fill:none;stroke:#ff6600;stroke-width:152;stroke-linejoin:round"
             inkscape:connector-curvature="0"
             id="path8270"
             d="m 9444,13228 -300,0" />
          <path
             style="fill:none;stroke:#ff6600;stroke-width:152;stroke-linejoin:round"
             inkscape:connector-curvature="0"
             id="path8272"
             d="m 8951,13228 -299,0" />
          <path
             style="fill:none;stroke:#ff6600;stroke-width:152;stroke-linejoin:round"
             inkscape:connector-curvature="0"
             id="path8274"
             d="m 8459,13228 -300,0" />
          <path
             style="fill:none;stroke:#ff6600;stroke-width:152;stroke-linejoin:round"
             inkscape:connector-curvature="0"
             id="path8276"
             d="m 7966,13228 -299,0" />
          <path
             style="fill:none;stroke:#ff6600;stroke-width:152;stroke-linejoin:round"
             inkscape:connector-curvature="0"
             id="path8278"
             d="m 7474,13228 -300,0" />
        </g>
      </g>
      <g
         id="g8280"
         class="com.sun.star.drawing.CustomShape">
        <g
           id="id101">
          <rect
             style="fill:none;stroke:none"
             id="rect8283"
             height="677"
             width="677"
             y="7487"
             x="2095"
             class="BoundingBox" />
          <path
             style="fill:#ffffff;stroke:none"
             inkscape:connector-curvature="0"
             id="path8285"
             d="m 2433,8087 -262,0 0,-524 524,0 0,524 -262,0 z" />
          <path
             style="fill:none;stroke:#ff6600;stroke-width:152;stroke-linejoin:round"
             inkscape:connector-curvature="0"
             id="path8287"
             d="m 2433,8087 -262,0 0,-524 524,0 0,524 -262,0 z" />
        </g>
      </g>
      <g
         id="g8289"
         class="com.sun.star.drawing.CustomShape">
        <g
           id="id102">
          <rect
             style="fill:none;stroke:none"
             id="rect8292"
             height="677"
             width="677"
             y="12854"
             x="2095"
             class="BoundingBox" />
          <path
             style="fill:#ffffff;stroke:none"
             inkscape:connector-curvature="0"
             id="path8294"
             d="m 2433,13454 -262,0 0,-524 524,0 0,524 -262,0 z" />
          <path
             style="fill:none;stroke:#ff6600;stroke-width:152;stroke-linejoin:round"
             inkscape:connector-curvature="0"
             id="path8296"
             d="m 2433,13454 -262,0 0,-524 524,0 0,524 -262,0 z" />
        </g>
      </g>
      <g
         id="g8298"
         class="com.sun.star.drawing.CustomShape">
        <g
           id="id103">
          <rect
             style="fill:none;stroke:none"
             id="rect8301"
             height="677"
             width="677"
             y="7487"
             x="11355"
             class="BoundingBox" />
          <path
             style="fill:#ffffff;stroke:none"
             inkscape:connector-curvature="0"
             id="path8303"
             d="m 11693,8087 -262,0 0,-524 524,0 0,524 -262,0 z" />
          <path
             style="fill:none;stroke:#ff6600;stroke-width:152;stroke-linejoin:round"
             inkscape:connector-curvature="0"
             id="path8305"
             d="m 11693,8087 -262,0 0,-524 524,0 0,524 -262,0 z" />
        </g>
      </g>
      <g
         id="g8307"
         class="com.sun.star.drawing.CustomShape">
        <g
           id="id104">
          <rect
             style="fill:none;stroke:none"
             id="rect8310"
             height="677"
             width="677"
             y="12854"
             x="11355"
             class="BoundingBox" />
          <path
             style="fill:#ffffff;stroke:none"
             inkscape:connector-curvature="0"
             id="path8312"
             d="m 11693,13454 -262,0 0,-524 524,0 0,524 -262,0 z" />
          <path
             style="fill:none;stroke:#ff6600;stroke-width:152;stroke-linejoin:round"
             inkscape:connector-curvature="0"
             id="path8314"
             d="m 11693,13454 -262,0 0,-524 524,0 0,524 -262,0 z" />
        </g>
      </g>
    </g>
  </g>
</svg>
